<svg width="250" height="126" viewBox="0 0 250 126" fill="none" xmlns="http://www.w3.org/2000/svg">
<g filter="url(#filter0_ddddddd_7955_73630)">
<g clip-path="url(#clip0_7955_73630)">
<g clip-path="url(#clip1_7955_73630)">
<g clip-path="url(#clip2_7955_73630)">
<mask id="mask0_7955_73630" style="mask-type:luminance" maskUnits="userSpaceOnUse" x="23" y="1" width="219" height="224">
<path d="M241.216 1.69345L24.1715 1.20154L23.6655 224.457L240.71 224.949L241.216 1.69345Z" fill="white"/>
</mask>
<g mask="url(#mask0_7955_73630)">
<path d="M241.216 1.69345L24.1715 1.20154L23.6655 224.457L240.71 224.949L241.216 1.69345Z" fill="white"/>
<g filter="url(#filter1_di_7955_73630)">
<path d="M241.216 1.69345L24.1715 1.20154L24.0883 37.8999L241.133 38.3918L241.216 1.69345Z" fill="white"/>
<path d="M144.213 7.76462L121.145 7.71234C120.566 7.71102 120.096 8.1794 120.095 8.75848C120.093 9.33756 120.562 9.80807 121.141 9.80938L144.208 9.86166C144.787 9.86297 145.258 9.3946 145.259 8.81552C145.26 8.23643 144.792 7.76593 144.213 7.76462Z" fill="#EBEBEB"/>
<path d="M75.5419 23.402L76.5653 23.4043L74.5975 29.28L73.7922 29.2781L72.4178 25.0223L71.0241 29.2719L70.2105 29.27L68.2526 23.3854L69.3011 23.3878L70.6336 27.6521L72.0272 23.394L72.841 23.3958L74.1902 27.6601L75.5419 23.402ZM79.3432 25.105C80.3749 25.1073 81.0192 25.8218 81.0167 26.9542L81.0114 29.2945L80.0718 29.2924L80.0768 27.1031C80.0783 26.4404 79.7018 26.0369 79.1146 26.0356C78.7036 26.0347 78.292 26.2518 78.0899 26.6037L78.0839 29.2879L77.1527 29.2858L77.166 23.4141L78.0972 23.4162L78.0919 25.7397C78.3361 25.346 78.8231 25.1038 79.3432 25.105ZM85.8826 27.0743C85.8824 27.1834 85.8735 27.3511 85.8481 27.4769L82.7277 27.4698C82.8268 28.1327 83.2789 28.5364 83.9416 28.5379C84.4029 28.5389 84.8228 28.3386 85.0165 28.0202L85.7619 28.5C85.4587 29.053 84.7701 29.3869 83.9229 29.385C82.7401 29.3823 81.7944 28.4491 81.7972 27.2244C81.7999 26.0333 82.733 25.1127 83.9158 25.1154C85.023 25.1179 85.8851 25.9754 85.8826 27.0743ZM82.7629 26.7569L84.9019 26.7617C84.8527 26.2499 84.4257 25.8883 83.8637 25.887C83.3017 25.8857 82.9067 26.2204 82.7629 26.7569ZM88.8538 25.1265C89.8772 25.1289 90.5298 25.8433 90.5273 26.9758L90.522 29.3161L89.5825 29.3139L89.5875 27.1247C89.589 26.4619 89.204 26.0585 88.6252 26.0572C88.2058 26.0562 87.8026 26.2734 87.5922 26.6252L87.5861 29.3094L86.655 29.3073L86.6643 25.2055L87.5954 25.2076L87.5941 25.7613C87.8467 25.3675 88.3337 25.1254 88.8538 25.1265ZM94.8656 29.4182C94.2029 29.4167 93.4905 29.1802 93.0886 28.8186L93.4593 28.1148C93.7774 28.4175 94.3809 28.6286 94.8422 28.6297C95.2533 28.6306 95.5221 28.4382 95.5227 28.1783C95.5244 27.4233 93.2416 27.9466 93.245 26.4283C93.2468 25.665 93.9022 25.138 94.8417 25.1401C95.4121 25.1414 96.0073 25.3021 96.3756 25.6385L96.0049 26.3591C95.6784 26.0732 95.0916 25.9208 94.7477 25.92C94.4038 25.9192 94.1769 26.0865 94.1763 26.3549C94.1747 27.0512 96.474 26.6286 96.4706 28.1468C96.4689 28.885 95.8051 29.4203 94.8656 29.4182ZM99.4208 25.1505C100.452 25.1528 101.097 25.8673 101.094 26.9997L101.089 29.34L100.149 29.3379L100.154 27.1486C100.156 26.4859 99.7794 26.0824 99.1922 26.0811C98.7811 26.0802 98.3697 26.2973 98.1676 26.6492L98.1615 29.3334L97.2303 29.3313L97.2436 23.4596L98.1748 23.4617L98.1695 25.7852C98.4136 25.3915 98.9007 25.1493 99.4208 25.1505ZM104.002 25.1609C105.201 25.1636 106.13 26.0885 106.127 27.3047C106.125 28.521 105.192 29.4332 103.992 29.4305C102.793 29.4277 101.872 28.5114 101.875 27.2951C101.877 26.0788 102.802 25.1582 104.002 25.1609ZM104 26.0585C103.32 26.057 102.799 26.5926 102.797 27.2971C102.796 27.9934 103.315 28.5314 103.994 28.5329C104.674 28.5345 105.203 27.9988 105.205 27.3026C105.206 26.5981 104.679 26.06 104 26.0585ZM109.841 25.258L110.781 25.2601L110.772 29.3619L109.832 29.3598L109.833 28.8062C109.589 29.2 109.094 29.442 108.582 29.4409C107.55 29.4385 106.906 28.7241 106.909 27.5833L106.914 25.2514L107.845 25.2535L107.84 27.4428C107.839 28.1055 108.223 28.509 108.811 28.5103C109.222 28.5113 109.625 28.2857 109.835 27.9338L109.841 25.258ZM112.699 23.4946L112.685 29.3663L111.754 29.3642L111.767 23.4925L112.699 23.4946ZM116.681 23.5037L117.611 23.5058L117.598 29.3774L116.668 29.3753L116.669 28.8217C116.45 29.1903 115.904 29.4575 115.358 29.4562C114.251 29.4537 113.389 28.5123 113.392 27.3128C113.395 26.1217 114.26 25.1841 115.368 25.1866C115.913 25.1879 116.458 25.4575 116.676 25.8272L116.681 23.5037ZM115.553 28.5675C116.014 28.5686 116.468 28.3096 116.671 27.9578L116.674 26.6995C116.473 26.3383 116.029 26.0773 115.559 26.0762C114.854 26.0746 114.316 26.6019 114.315 27.3149C114.313 28.0279 114.849 28.5659 115.553 28.5675ZM121.519 29.3863L120.044 25.2811L121.042 25.2834L121.9 27.9444L122.863 25.2875L123.617 25.2892L124.576 27.9505L125.446 25.2934L126.444 25.2956L124.95 29.3941L124.204 29.3924L123.237 26.7312L122.257 29.388L121.519 29.3863ZM130.732 27.1759C130.731 27.285 130.722 27.4528 130.697 27.5785L127.577 27.5714C127.676 28.2343 128.128 28.638 128.791 28.6395C129.251 28.6405 129.672 28.4402 129.866 28.1219L130.611 28.6016C130.307 29.1546 129.619 29.4885 128.772 29.4866C127.589 29.4839 126.644 28.5507 126.646 27.3261C126.649 26.135 127.582 25.2143 128.765 25.217C129.872 25.2195 130.734 26.0771 130.732 27.1759ZM127.612 26.8585L129.751 26.8634C129.701 26.3516 129.275 25.9899 128.713 25.9886C128.151 25.9874 127.756 26.322 127.612 26.8585ZM136.431 23.5484L137.362 23.5505L137.349 29.4222L136.417 29.4201L136.419 28.8665C136.2 29.235 135.653 29.5022 135.109 29.501C134.001 29.4985 133.139 28.5571 133.142 27.3575C133.144 26.1664 134.011 25.2289 135.118 25.2314C135.663 25.2326 136.208 25.5023 136.425 25.8719L136.431 23.5484ZM135.303 28.6123C135.765 28.6133 136.218 28.3544 136.421 28.0025L136.423 26.7442C136.222 26.3831 135.778 26.122 135.309 26.121C134.604 26.1194 134.066 26.6466 134.064 27.3596C134.063 28.0726 134.599 28.6107 135.303 28.6123ZM142.142 27.2018C142.142 27.3109 142.133 27.4786 142.108 27.6044L138.988 27.5973C139.087 28.2602 139.539 28.6639 140.201 28.6654C140.663 28.6664 141.082 28.4661 141.276 28.1477L142.022 28.6275C141.719 29.1805 141.03 29.5144 140.183 29.5125C139 29.5098 138.054 28.5766 138.057 27.3519C138.06 26.1608 138.993 25.2402 140.176 25.2429C141.283 25.2454 142.145 26.103 142.142 27.2018ZM139.023 26.8844L141.162 26.8892C141.113 26.3774 140.685 26.0158 140.123 26.0145C139.562 26.0132 139.167 26.3479 139.023 26.8844ZM143.859 23.5653L143.846 29.4369L142.914 29.4348L142.928 23.5631L143.859 23.5653ZM145.315 23.4343C145.642 23.435 145.919 23.7125 145.918 24.0313C145.917 24.3667 145.64 24.6346 145.312 24.6339C144.985 24.6331 144.717 24.364 144.718 24.0285C144.719 23.7097 144.988 23.4336 145.315 23.4343ZM144.841 25.3373L145.772 25.3394L145.763 29.4413L144.832 29.4391L144.841 25.3373ZM150.608 25.3504L148.879 29.4483L148.074 29.4465L146.364 25.3408L147.379 25.3431L148.479 28.1976L149.584 25.3481L150.608 25.3504ZM154.823 27.2305C154.823 27.3396 154.814 27.5074 154.788 27.6331L151.668 27.626C151.768 28.2889 152.219 28.6926 152.882 28.6941C153.343 28.6951 153.763 28.4948 153.957 28.1765L154.702 28.6562C154.399 29.2092 153.71 29.5431 152.864 29.5412C151.681 29.5385 150.735 28.6053 150.737 27.3807C150.74 26.1896 151.674 25.2689 152.856 25.2716C153.964 25.2741 154.825 26.1317 154.823 27.2305ZM151.703 26.9131L153.843 26.918C153.793 26.4062 153.366 26.0445 152.804 26.0432C152.242 26.042 151.847 26.3766 151.703 26.9131ZM157.585 25.2823C157.777 25.2828 157.937 25.3083 158.054 25.3505L157.993 26.2311C157.851 26.1805 157.667 26.1465 157.507 26.1462C157.196 26.1454 156.751 26.3961 156.532 26.8486L156.526 29.4656L155.596 29.4635L155.605 25.3617L156.536 25.3638L156.534 25.9259C156.745 25.5321 157.207 25.2815 157.585 25.2823ZM162.944 28.6163L162.992 29.4384C162.857 29.5052 162.665 29.5383 162.489 29.5379C161.582 29.5358 160.947 28.9557 160.949 27.9406L160.953 26.263L160.164 26.2612L160.166 25.3721L160.955 25.3738L160.957 24.275L161.888 24.2771L161.886 25.376L162.959 25.3784L162.957 26.2675L161.884 26.2651L161.88 27.9009C161.879 28.3789 162.214 28.6649 162.625 28.6658C162.726 28.666 162.859 28.6412 162.944 28.6163ZM165.928 25.3012C166.96 25.3036 167.604 26.018 167.602 27.1505L167.597 29.4907L166.657 29.4886L166.662 27.2993C166.663 26.6366 166.287 26.2332 165.7 26.2318C165.288 26.2309 164.877 26.448 164.675 26.7999L164.669 29.4841L163.738 29.482L163.752 23.6103L164.682 23.6124L164.677 25.936C164.921 25.5422 165.408 25.3 165.928 25.3012ZM169.071 23.4881C169.397 23.4889 169.674 23.7663 169.673 24.0851C169.672 24.4206 169.395 24.6884 169.068 24.6877C168.74 24.687 168.473 24.4178 168.473 24.0824C168.474 23.7636 168.743 23.4874 169.071 23.4881ZM168.597 25.3912L169.527 25.3933L169.518 29.4951L168.588 29.493L168.597 25.3912ZM172.022 29.593C171.36 29.5915 170.647 29.3551 170.245 28.9935L170.616 28.2897C170.934 28.5924 171.538 28.8035 171.999 28.8046C172.41 28.8055 172.679 28.6131 172.679 28.3531C172.681 27.5982 170.398 28.1215 170.402 26.6032C170.404 25.8398 171.059 25.3129 171.998 25.315C172.569 25.3163 173.164 25.477 173.533 25.8134L173.162 26.5339C172.835 26.248 172.248 26.0957 171.905 26.0949C171.56 26.0941 171.334 26.2614 171.333 26.5298C171.332 27.226 173.63 26.8034 173.627 28.3217C173.625 29.0598 172.961 29.5952 172.022 29.593ZM180.057 28.4789C179.745 29.1576 179.023 29.6005 178.167 29.5986C176.951 29.5958 176.022 28.6794 176.025 27.4631C176.028 26.2469 176.952 25.3262 178.168 25.329C178.965 25.3308 179.636 25.7266 179.936 26.3312L179.147 26.774C178.98 26.4465 178.611 26.2276 178.166 26.2266C177.462 26.225 176.949 26.7607 176.948 27.4652C176.946 28.1614 177.465 28.6995 178.169 28.701C178.647 28.7021 179.042 28.4766 179.228 28.0996L180.057 28.4789ZM183.643 25.4253L184.574 25.4274L184.565 29.5292L183.633 29.5271L183.635 28.9735C183.416 29.3421 182.87 29.6092 182.325 29.608C181.217 29.6055 180.356 28.6641 180.359 27.4645C180.361 26.2735 181.227 25.3359 182.335 25.3384C182.879 25.3396 183.424 25.6093 183.641 25.9789L183.643 25.4253ZM182.519 28.7193C182.981 28.7203 183.435 28.4614 183.637 28.1096L183.639 26.8513C183.439 26.4901 182.995 26.2291 182.525 26.228C181.82 26.2264 181.283 26.7536 181.281 27.4666C181.28 28.1796 181.815 28.7177 182.519 28.7193ZM187.541 25.3502C187.734 25.3506 187.894 25.3762 188.011 25.4184L187.95 26.299C187.808 26.2484 187.623 26.2144 187.464 26.214C187.154 26.2133 186.708 26.464 186.489 26.9165L186.483 29.5335L185.552 29.5314L185.562 25.4296L186.493 25.4317L186.492 25.9938C186.702 25.6 187.163 25.3494 187.541 25.3502ZM191.437 23.6731L192.368 23.6752L192.355 29.5468L191.423 29.5447L191.425 28.9911C191.206 29.3597 190.661 29.6269 190.115 29.6257C189.008 29.6231 188.146 28.6818 188.149 27.4822C188.151 26.2911 189.017 25.3536 190.125 25.3561C190.67 25.3573 191.214 25.627 191.432 25.9966L191.437 23.6731ZM190.31 28.7369C190.771 28.738 191.225 28.4791 191.427 28.1272L191.43 26.8689C191.229 26.5078 190.785 26.2467 190.316 26.2457C189.611 26.2441 189.073 26.7713 189.071 27.4843C189.07 28.1973 189.606 28.7353 190.31 28.7369ZM195.025 23.5973C196.141 23.5999 196.935 24.3147 196.933 25.3212C196.93 26.8982 195.353 26.9114 195.351 27.8508L194.412 27.8487C194.415 26.3221 195.924 26.401 195.927 25.4196C195.928 24.9079 195.543 24.5547 194.99 24.5534C194.369 24.552 193.94 24.9956 193.922 25.6247L192.966 25.5303C193.002 24.4064 193.842 23.5946 195.025 23.5973ZM194.902 29.6365C194.542 29.6357 194.257 29.3499 194.258 28.9976C194.259 28.6369 194.545 28.3607 194.905 28.3615C195.274 28.3624 195.551 28.6398 195.55 29.0005C195.549 29.3528 195.271 29.6373 194.902 29.6365Z" fill="#333333"/>
</g>
<path d="M241.133 38.3918L24.0883 37.8999L23.7059 206.631L240.751 207.123L241.133 38.3918Z" fill="white"/>
<g opacity="0.24">
<path d="M63.8153 59.6234C62.9833 59.6215 62.5152 59.1045 62.4668 58.4156L62.4637 58.369L63.0627 58.3703L63.0659 58.4036C63.1017 58.7664 63.3373 59.0698 63.8132 59.0709C64.3456 59.0721 64.6325 58.7566 64.6338 58.1709L64.6417 54.71L65.2407 54.7114L65.2328 58.1789C65.2308 59.0874 64.7037 59.6254 63.8153 59.6234ZM67.5405 59.5819C66.7252 59.58 66.307 59.0999 66.3089 58.2512L66.3142 55.9284L66.8932 55.9297L66.8882 58.1128C66.8868 58.7583 67.1191 59.0684 67.6914 59.0697C68.3237 59.0712 68.6607 58.6858 68.6621 58.0569L68.6669 55.9337L69.246 55.935L69.2379 59.5224L68.6588 59.5211L68.66 58.9854L68.6068 58.9853C68.4296 59.3675 68.0663 59.583 67.5405 59.5819ZM71.7415 59.5914C70.7166 59.5891 70.0993 58.8688 70.1018 57.744L70.1018 57.7407C70.1044 56.6325 70.7383 55.8752 71.7133 55.8774C72.6884 55.8796 73.2791 56.6065 73.2767 57.678L73.2762 57.9043L70.6938 57.8984C70.7087 58.6406 71.1171 59.0742 71.756 59.0756C72.2419 59.0767 72.5419 58.8477 72.6389 58.6317L72.6523 58.6018L73.2313 58.6031L73.2246 58.6296C73.1004 59.1152 72.5868 59.5933 71.7415 59.5914ZM71.7088 56.3932C71.1765 56.392 70.7696 56.7539 70.7048 57.4359L72.6882 57.4404C72.6299 56.7314 72.238 56.3944 71.7088 56.3932Z" fill="#181818" fill-opacity="0.48"/>
<path d="M130.773 59.6619L130.782 55.5255L130.728 55.5254L129.505 56.4078L129.506 55.7755L130.786 54.86L131.382 54.8613L131.371 59.6633L130.773 59.6619ZM132.916 59.6668L135.082 55.452L135.083 55.4054L132.514 55.3996L132.515 54.8639L135.693 54.8711L135.691 55.4268L133.546 59.6682L132.916 59.6668Z" fill="#181818" fill-opacity="0.48"/>
<path d="M185.841 59.8666C184.849 59.8644 184.208 59.3105 184.147 58.5516L184.143 58.5117L184.72 58.513L184.722 58.5462C184.768 59.019 185.203 59.346 185.842 59.3475C186.472 59.3489 186.902 58.9971 186.903 58.488L186.903 58.4813C186.904 57.8923 186.482 57.5619 185.809 57.5604L185.207 57.559L185.209 57.0532L185.784 57.0545C186.356 57.0558 186.756 56.704 186.757 56.2248L186.757 56.2181C186.759 55.7155 186.43 55.4253 185.844 55.424C185.279 55.4227 184.876 55.7213 184.824 56.207L184.82 56.2403L184.245 56.239L184.248 56.2057C184.327 55.4238 184.947 54.9028 185.845 54.9049C186.76 54.9069 187.362 55.4174 187.36 56.1463L187.36 56.1528C187.359 56.7453 186.938 57.1502 186.339 57.2754L186.339 57.2887C187.038 57.3501 187.513 57.7872 187.512 58.4694L187.512 58.476C187.51 59.278 186.803 59.8688 185.841 59.8666ZM188.922 56.5358C188.685 56.5353 188.49 56.3385 188.49 56.1022C188.491 55.8626 188.687 55.6701 188.924 55.6706C189.163 55.6711 189.355 55.8646 189.355 56.1042C189.354 56.3404 189.161 56.5363 188.922 56.5358ZM188.916 59.1115C188.679 59.111 188.484 58.9142 188.484 58.6779C188.485 58.4383 188.681 58.2457 188.918 58.2463C189.157 58.2468 189.349 58.4403 189.349 58.6799C189.348 58.9161 189.155 59.112 188.916 59.1115ZM192.027 59.914C190.965 59.9116 190.335 58.9417 190.339 57.3975L190.339 57.391C190.342 55.8468 190.976 54.8831 192.038 54.8856C193.099 54.888 193.736 55.8545 193.733 57.3987L193.732 57.4052C193.729 58.9494 193.088 59.9164 192.027 59.914ZM192.028 59.3915C192.716 59.3931 193.128 58.6286 193.13 57.4039L193.13 57.3973C193.133 56.1726 192.725 55.4129 192.037 55.4114C191.348 55.4098 190.943 56.1676 190.941 57.3923L190.941 57.3989C190.938 58.6236 191.339 59.3899 192.028 59.3915ZM196.278 59.9236C195.216 59.9212 194.586 58.9514 194.589 57.4072L194.589 57.4006C194.593 55.8564 195.228 54.8928 196.289 54.8952C197.35 54.8976 197.988 55.8641 197.984 57.4083L197.984 57.4149C197.981 58.959 197.339 59.926 196.278 59.9236ZM196.279 59.4011C196.968 59.4027 197.378 58.6382 197.381 57.4135L197.381 57.4069C197.384 56.1822 196.977 55.4226 196.288 55.421C195.599 55.4194 195.195 56.1773 195.192 57.402L195.192 57.4085C195.189 58.6332 195.59 59.3996 196.279 59.4011ZM200.49 59.8199L202.271 55.022L202.864 55.0233L204.624 59.8293L203.994 59.8279L203.515 58.4524L201.605 58.4481L201.12 59.8214L200.49 59.8199ZM202.54 55.7979L201.782 57.9394L203.339 57.9429L202.593 55.798L202.54 55.7979ZM205.423 59.8311L205.434 55.0291L206.129 55.0307L207.765 59.0411L207.818 59.0412L209.471 55.0383L210.166 55.0399L210.156 59.8418L209.596 59.8406L209.605 56.1733L209.568 56.1732L208.043 59.8371L207.536 59.8359L206.028 56.1652L205.991 56.1651L205.983 59.8324L205.423 59.8311Z" fill="#181818" fill-opacity="0.48"/>
</g>
<path d="M62.4087 74.9482C61.4488 74.946 60.9087 74.3497 60.8529 73.5547L60.8492 73.5009L61.5404 73.5025L61.5441 73.541C61.5854 73.9595 61.8572 74.3096 62.4063 74.3108C63.0207 74.3122 63.3518 73.9482 63.3533 73.2724L63.3624 69.279L64.0536 69.2805L64.0445 73.2816C64.0421 74.3299 63.434 74.9505 62.4087 74.9482ZM66.6297 74.9002C65.689 74.8981 65.2064 74.3441 65.2086 73.3649L65.2147 70.6847L65.8828 70.6862L65.8771 73.2051C65.8754 73.9501 66.1434 74.3078 66.8039 74.3093C67.5334 74.311 67.9223 73.8664 67.9239 73.1407L67.9294 70.6909L68.5976 70.6924L68.5882 74.8317L67.9201 74.8302L67.9215 74.212L67.86 74.2118C67.6556 74.6529 67.2364 74.9016 66.6297 74.9002ZM69.7487 74.8344L69.7618 69.0515L70.4299 69.0531L70.4168 74.8359L69.7487 74.8344ZM71.9235 76.2907C71.8352 76.2905 71.72 76.2826 71.6279 76.267L71.6291 75.7179C71.7097 75.7334 71.8133 75.7375 71.9055 75.7377C72.2857 75.7386 72.5165 75.5663 72.6673 75.0905L72.7446 74.845L71.2219 70.6983L71.9362 70.6999L73.065 74.1084L73.1265 74.1086L74.2669 70.7052L74.9696 70.7068L73.3431 75.0959C72.9993 76.0244 72.6569 76.2923 71.9235 76.2907Z" fill="#181818" fill-opacity="0.48"/>
<path d="M130.228 74.9714L130.239 70.1985L130.177 70.1984L128.766 71.2165L128.768 70.487L130.245 69.4305L130.932 69.4321L130.919 74.973L130.228 74.9714ZM134.287 75.0727C133.112 75.07 132.277 74.4077 132.279 73.4785L132.279 73.4708C132.28 72.7873 132.762 72.2202 133.472 72.0566L133.472 72.0412C132.866 71.8517 132.484 71.3901 132.485 70.8064L132.485 70.7987C132.487 69.9617 133.253 69.3452 134.3 69.3476C135.349 69.35 136.112 69.9699 136.11 70.807L136.11 70.8147C136.108 71.3983 135.723 71.8582 135.116 72.045L135.116 72.0604C135.826 72.2271 136.304 72.7964 136.303 73.4799L136.303 73.4876C136.301 74.4169 135.463 75.0754 134.287 75.0727ZM134.295 71.7859C134.963 71.7874 135.421 71.4083 135.422 70.8707L135.422 70.863C135.423 70.3254 134.968 69.9443 134.299 69.9428C133.631 69.9413 133.173 70.3203 133.172 70.8579L133.172 70.8656C133.171 71.4032 133.627 71.7844 134.295 71.7859ZM134.289 74.4698C135.053 74.4716 135.6 74.0428 135.601 73.4438L135.601 73.4361C135.602 72.8295 135.062 72.3943 134.293 72.3925C133.525 72.3908 132.983 72.8235 132.982 73.4301L132.982 73.4378C132.98 74.0368 133.525 74.4681 134.289 74.4698Z" fill="#181818" fill-opacity="0.48"/>
<path d="M184.288 75.186C183.143 75.1834 182.404 74.5443 182.333 73.6687L182.329 73.6226L182.994 73.6241L182.997 73.6625C183.05 74.2079 183.552 74.5853 184.289 74.587C185.015 74.5887 185.511 74.1827 185.512 73.5953L185.512 73.5876C185.514 72.9079 185.027 72.5267 184.252 72.525L183.556 72.5234L183.558 71.9397L184.222 71.9412C184.883 71.9427 185.344 71.5368 185.345 70.9839L185.345 70.9762C185.347 70.3963 184.968 70.0615 184.292 70.0599C183.639 70.0584 183.174 70.4029 183.115 70.9634L183.111 71.0018L182.447 71.0003L182.451 70.9619C182.541 70.0597 183.256 69.4586 184.294 69.4609C185.349 69.4633 186.043 70.0523 186.041 70.8933L186.041 70.901C186.039 71.5845 185.554 72.0518 184.863 72.1961L184.863 72.2115C185.669 72.2824 186.217 72.7866 186.215 73.5739L186.215 73.5816C186.213 74.5069 185.398 75.1885 184.288 75.186ZM187.765 71.3426C187.493 71.342 187.267 71.1149 187.267 70.8423C187.268 70.5658 187.495 70.3436 187.767 70.3443C188.044 70.3449 188.266 70.5681 188.265 70.8445C188.265 71.1171 188.042 71.3432 187.765 71.3426ZM187.758 74.3146C187.486 74.3139 187.26 74.0869 187.261 73.8143C187.261 73.5378 187.488 73.3156 187.76 73.3162C188.037 73.3168 188.259 73.5401 188.258 73.8166C188.258 74.0892 188.035 74.3152 187.758 74.3146ZM191.27 75.2402C190.046 75.2375 189.318 74.1184 189.322 72.3368L189.322 72.3291C189.326 70.5475 190.059 69.4356 191.284 69.4384C192.509 69.4411 193.243 70.5563 193.239 72.338L193.239 72.3457C193.235 74.1273 192.496 75.243 191.27 75.2402ZM191.272 74.6374C192.067 74.6392 192.541 73.7572 192.544 72.3441L192.544 72.3364C192.547 70.9233 192.077 70.0468 191.282 70.045C190.488 70.0432 190.021 70.9176 190.017 72.3307L190.017 72.3384C190.014 73.7514 190.477 74.6356 191.272 74.6374ZM196.098 75.2512C194.873 75.2484 194.146 74.1294 194.15 72.3477L194.15 72.34C194.154 70.5584 194.886 69.4465 196.111 69.4493C197.336 69.4521 198.071 70.5673 198.067 72.3489L198.067 72.3566C198.063 74.1382 197.323 75.254 196.098 75.2512ZM196.1 74.6483C196.894 74.6501 197.368 73.7681 197.371 72.355L197.371 72.3473C197.375 70.9343 196.905 70.0577 196.11 70.0559C195.315 70.0541 194.849 70.9285 194.845 72.3416L194.845 72.3493C194.842 73.7624 195.304 74.6465 196.1 74.6483ZM200.803 75.1314L202.859 69.5951L203.543 69.5966L205.572 75.1422L204.847 75.1405L204.294 73.5534L202.09 73.5484L201.529 75.133L200.803 75.1314ZM203.168 70.4905L202.295 72.9614L204.092 72.9654L203.23 70.4906L203.168 70.4905ZM206.418 75.1441L206.431 69.6032L207.234 69.605L209.12 74.2325L209.181 74.2326L211.089 69.6137L211.891 69.6156L211.879 75.1565L211.233 75.155L211.243 70.9235L211.201 70.9234L209.44 75.1509L208.857 75.1496L207.115 70.9141L207.073 70.914L207.064 75.1455L206.418 75.1441Z" fill="#181818" fill-opacity="0.48"/>
<path d="M52.5511 91.8165L55.1788 84.8038L56.0446 84.8057L58.6357 91.8303L57.7164 91.8282L57.0109 89.8179L54.1851 89.8115L53.4703 91.8186L52.5511 91.8165ZM55.5996 85.8553L54.4542 89.0673L56.7499 89.0725L55.6191 85.8554L55.5996 85.8553ZM61.0914 91.9333C59.9825 91.9308 59.3421 91.2093 59.3447 90.0566L59.3522 86.773L60.1985 86.7749L60.1914 89.9072C60.1895 90.7298 60.5727 91.1831 61.3509 91.1848C62.1486 91.1866 62.6703 90.6183 62.6722 89.7572L62.679 86.7805L63.5253 86.7825L63.5138 91.8413L62.6675 91.8394L62.6692 91.1194L62.6497 91.1193C62.3762 91.5908 61.8599 91.9351 61.0914 91.9333ZM66.9531 93.6483C65.7031 93.6455 64.9165 93.0553 64.7528 92.3059L64.7432 92.2623L65.5943 92.2642L65.6137 92.3078C65.7734 92.6733 66.2544 92.8976 66.9451 92.8992C67.8351 92.9012 68.3421 92.4115 68.3439 91.6282L68.3453 90.9818L68.3258 90.9817C68.0231 91.5403 67.4385 91.899 66.7138 91.8973C65.4395 91.8944 64.5713 90.8663 64.5748 89.2852L64.5749 89.2801C64.5784 87.7092 65.4611 86.6902 66.7451 86.6931C67.4601 86.6947 68.0234 87.0851 68.3334 87.6502L68.3529 87.6502L68.3548 86.7934L69.2011 86.7953L69.19 91.7131C69.1873 92.8855 68.3247 93.6514 66.9531 93.6483ZM66.9004 91.1487C67.7612 91.1506 68.3466 90.4174 68.3492 89.2938L68.3492 89.2886C68.3517 88.1753 67.7648 87.4445 66.9088 87.4426C66.009 87.4405 65.4431 88.1584 65.4406 89.282L65.4406 89.2872C65.438 90.4347 66.0006 91.1466 66.9004 91.1487ZM72.2096 91.9585C71.1006 91.956 70.4603 91.2345 70.4629 90.0818L70.4704 86.7982L71.3166 86.8001L71.3095 89.9324C71.3076 90.755 71.6909 91.2082 72.4691 91.21C73.2667 91.2118 73.7884 90.6435 73.7904 89.7824L73.7971 86.8057L74.6434 86.8077L74.632 91.8665L73.7857 91.8646L73.7873 91.1446L73.7679 91.1445C73.4945 91.616 72.978 91.9603 72.2096 91.9585ZM77.7297 91.971C76.5381 91.9683 75.8197 91.3587 75.7196 90.4538L75.7149 90.4093L76.5612 90.4112L76.5707 90.46C76.6718 90.9664 77.0456 91.264 77.7362 91.2656C78.422 91.2671 78.8312 90.9807 78.8323 90.5241L78.8323 90.519C78.8331 90.1538 78.6439 89.949 78.0703 89.8066L77.2682 89.6107C76.3154 89.3802 75.8543 88.9362 75.856 88.2068L75.856 88.2017C75.858 87.3312 76.623 86.7155 77.7174 86.718C78.8263 86.7205 79.5301 87.3686 79.5914 88.2153L79.5961 88.2786L78.7887 88.2767L78.7839 88.2425C78.717 87.7515 78.3432 87.424 77.7158 87.4226C77.1029 87.4212 76.7229 87.7171 76.7219 88.1652L76.7219 88.1694C76.7211 88.5149 76.9491 88.754 77.5082 88.8912L78.3102 89.088C79.331 89.3383 79.6998 89.7428 79.6981 90.4628L79.6981 90.467C79.6961 91.3529 78.8582 91.9736 77.7297 91.971ZM82.4183 91.9816C81.4893 91.9795 81.033 91.5595 81.0352 90.5924L81.0421 87.5225L80.3029 87.5208L80.3045 86.8205L81.0437 86.8222L81.0468 85.4559L81.9224 85.4578L81.9193 86.8241L82.8822 86.8263L82.8806 87.5267L81.9177 87.5245L81.9107 90.5892C81.9095 91.1288 82.1475 91.2798 82.5998 91.2809C82.702 91.2811 82.7992 91.2668 82.8722 91.2627L82.8706 91.9485C82.7636 91.9628 82.5836 91.982 82.4183 91.9816Z" fill="#181818" fill-opacity="0.48"/>
<path d="M129.465 91.9908L129.479 85.9012L129.459 85.9011L127.599 87.191L127.601 86.3103L129.472 84.9722L130.328 84.9741L130.312 91.9927L129.465 91.9908ZM134.778 84.8675C136.072 84.8704 137.441 85.7685 137.436 88.3703L137.436 88.3806C137.43 90.7441 136.421 92.1229 134.703 92.119C133.511 92.1163 132.623 91.4336 132.392 90.412L132.377 90.3487L133.267 90.3507L133.287 90.4038C133.494 90.9832 133.995 91.3443 134.715 91.346C136.023 91.3489 136.541 90.0802 136.584 88.607C136.589 88.5582 136.589 88.5095 136.589 88.4565L136.57 88.4564C136.286 89.0783 135.565 89.5821 134.612 89.5799C133.274 89.5769 132.285 88.5878 132.288 87.2547L132.288 87.2453C132.291 85.8638 133.343 84.8642 134.778 84.8675ZM134.764 88.8123C135.683 88.8144 136.381 88.1636 136.383 87.2691L136.383 87.264C136.385 86.3644 135.686 85.6478 134.786 85.6457C133.891 85.6437 133.179 86.3426 133.177 87.2276L133.177 87.237C133.175 88.152 133.84 88.8103 134.764 88.8123Z" fill="#181818" fill-opacity="0.48"/>
<path d="M182.006 92.1099L182.01 90.6502L178.483 90.6422L178.485 89.8495L181.575 85.0903L182.868 85.0932L182.857 89.8842L183.85 89.8865L183.848 90.6544L182.855 90.6521L182.852 92.1118L182.006 92.1099ZM179.351 89.8763L182.011 89.8823L182.02 85.8403L181.991 85.8403L179.351 89.8566L179.351 89.8763ZM185.402 87.2776C185.09 87.2769 184.848 87.0335 184.849 86.7222C184.85 86.411 185.093 86.1683 185.404 86.169C185.716 86.1697 185.959 86.4135 185.958 86.7247C185.957 87.036 185.713 87.2783 185.402 87.2776ZM185.393 91.0427C185.082 91.042 184.84 90.7977 184.84 90.4865C184.841 90.1752 185.084 89.9329 185.396 89.9336C185.707 89.9343 185.95 90.1777 185.949 90.489C185.949 90.8002 185.704 91.0434 185.393 91.0427ZM189.676 92.2436C188.061 92.2399 187.106 90.8422 187.111 88.6146L187.111 88.6043C187.116 86.3768 188.077 84.9883 189.692 84.9919C191.306 84.9956 192.271 86.3885 192.266 88.616L192.266 88.6263C192.261 90.8539 191.29 92.2472 189.676 92.2436ZM189.677 91.4799C190.747 91.4824 191.382 90.385 191.386 88.6243L191.386 88.614C191.39 86.8534 190.76 85.7628 189.69 85.7604C188.62 85.758 187.995 86.8457 187.991 88.6063L187.991 88.6166C187.987 90.3773 188.607 91.4775 189.677 91.4799ZM195.915 92.2577C194.301 92.2541 193.345 90.8563 193.35 88.6288L193.35 88.6185C193.356 86.3909 194.317 85.0024 195.932 85.0061C197.547 85.0097 198.512 86.4026 198.507 88.6302L198.507 88.6404C198.502 90.868 197.531 92.2614 195.915 92.2577ZM195.917 91.4941C196.988 91.4965 197.622 90.3991 197.626 88.6384L197.626 88.6282C197.63 86.8675 197.001 85.777 195.93 85.7746C194.86 85.7721 194.235 86.8598 194.231 88.6205L194.231 88.6307C194.227 90.3914 194.847 91.4917 195.917 91.4941ZM201.504 92.1541L204.132 85.1414L204.997 85.1433L207.589 92.1679L206.669 92.1658L205.963 90.1555L203.138 90.1491L202.423 92.1562L201.504 92.1541ZM204.552 86.1929L203.407 89.4049L205.703 89.4101L204.572 86.193L204.552 86.1929ZM208.595 92.1701L208.611 85.1515L209.623 85.1538L212.041 91.074L212.07 91.0741L214.516 85.1649L215.527 85.1672L215.511 92.1858L214.694 92.184L214.706 86.7608L214.677 86.7608L212.423 92.1788L211.684 92.1771L209.454 86.7489L209.424 86.7489L209.412 92.172L208.595 92.1701Z" fill="#181818" fill-opacity="0.48"/>
<path d="M226.319 97.7275L38.633 97.3021C36.3167 97.2969 34.4347 99.1704 34.4294 101.487L34.3945 116.879C34.3893 119.195 36.2628 121.077 38.5791 121.082L226.265 121.508C228.581 121.513 230.463 119.639 230.468 117.323L230.503 101.931C230.508 99.6148 228.635 97.7327 226.319 97.7275Z" fill="#767680" fill-opacity="0.12"/>
<path d="M42.9505 112.758C41.1258 112.754 39.9226 111.884 39.8245 110.453L39.819 110.369L41.0467 110.371L41.0579 110.445C41.1688 111.194 41.9167 111.663 43.0036 111.665C44.0906 111.668 44.7788 111.179 44.7805 110.419L44.7805 110.414C44.782 109.761 44.3379 109.405 43.2628 109.165L42.379 108.978C40.786 108.637 40.0161 107.902 40.0188 106.697L40.0188 106.691C40.0276 105.306 41.2519 104.357 42.9696 104.361C44.6647 104.365 45.8227 105.291 45.9041 106.654L45.9095 106.75L44.6819 106.747L44.6764 106.668C44.5655 105.913 43.9132 105.456 42.9502 105.454C41.9421 105.457 41.299 105.934 41.2973 106.644L41.2973 106.65C41.296 107.258 41.757 107.631 42.7701 107.853L43.6595 108.04C45.337 108.399 46.0563 109.082 46.0535 110.337L46.0534 110.343C46.0501 111.824 44.8765 112.762 42.9505 112.758ZM49.7513 112.756C48.0111 112.752 46.9607 111.562 46.9649 109.692L46.9649 109.686C46.9691 107.834 48.042 106.597 49.7033 106.601C51.3647 106.605 52.3813 107.801 52.3772 109.58L52.3763 109.992L48.1807 109.982C48.2007 111.102 48.813 111.757 49.7817 111.759C50.5026 111.761 50.9821 111.391 51.1352 110.946L51.1522 110.901L52.3067 110.904L52.2953 110.965C52.1017 111.906 51.1874 112.76 49.7513 112.756ZM49.7067 107.597C48.9182 107.595 48.3088 108.129 48.1996 109.12L51.1731 109.127C51.0741 108.102 50.5007 107.599 49.7067 107.597ZM53.4954 114.618L53.5133 106.722L54.7298 106.724L54.7275 107.745L54.7556 107.745C55.112 107.041 55.7663 106.615 56.6111 106.617C58.1204 106.62 59.0863 107.805 59.0821 109.697L59.082 109.702C59.0778 111.59 58.1008 112.775 56.6141 112.772C55.7749 112.77 55.0945 112.341 54.7468 111.653L54.7187 111.652L54.7119 114.621L53.4954 114.618ZM56.2841 111.724C57.2415 111.726 57.8402 110.95 57.8431 109.7L57.8431 109.694C57.8459 108.432 57.2451 107.66 56.2933 107.658C55.3697 107.655 54.7203 108.453 54.7175 109.687L54.7175 109.693C54.7147 110.92 55.3662 111.722 56.2841 111.724ZM62.2828 112.785C61.1114 112.782 60.5494 112.286 60.5521 111.103L60.5598 107.707L59.7094 107.705L59.7116 106.736L60.562 106.738L60.5655 105.195L61.81 105.198L61.8065 106.74L62.916 106.743L62.9138 107.712L61.8043 107.709L61.7968 111.032C61.7954 111.635 62.0654 111.815 62.5779 111.817C62.7074 111.817 62.8144 111.806 62.9046 111.795L62.9024 112.736C62.7615 112.758 62.5306 112.785 62.2828 112.785ZM66.4761 112.794C64.7359 112.79 63.6854 111.6 63.6896 109.73L63.6896 109.724C63.6938 107.872 64.7667 106.635 66.4281 106.639C68.0895 106.643 69.1061 107.839 69.102 109.618L69.1011 110.03L64.9055 110.02C64.9254 111.14 65.5378 111.795 66.5065 111.797C67.2274 111.799 67.7069 111.429 67.86 110.984L67.877 110.939L69.0315 110.942L69.02 111.003C68.8265 111.944 67.9122 112.797 66.4761 112.794ZM66.4314 107.635C65.643 107.633 65.0336 108.167 64.9244 109.158L67.8978 109.165C67.7988 108.14 67.2255 107.637 66.4314 107.635ZM70.2247 112.685L70.2381 106.76L71.4546 106.762L71.4525 107.681L71.4807 107.681C71.7355 107.062 72.3391 106.652 73.1162 106.654C73.9328 106.656 74.5288 107.08 74.7637 107.823L74.7918 107.823C75.0976 107.103 75.7969 106.66 76.6416 106.662C77.8131 106.665 78.5772 107.444 78.5745 108.632L78.5653 112.704L77.3432 112.701L77.3518 108.922C77.3535 108.15 76.9434 107.704 76.2225 107.703C75.5017 107.701 74.9992 108.24 74.9975 108.989L74.9891 112.695L73.7952 112.693L73.804 108.823C73.8056 108.137 73.3729 107.696 72.6858 107.695C71.965 107.693 71.4512 108.261 71.4495 109.027L71.4412 112.687L70.2247 112.685ZM83.0737 112.832C82.2232 112.83 81.5653 112.401 81.2178 111.707L81.1895 111.707L81.1873 112.71L79.9709 112.707L79.9893 104.58L81.2057 104.583L81.1984 107.793L81.2266 107.793C81.583 107.096 82.2598 106.675 83.0989 106.677C84.5857 106.68 85.5629 107.865 85.5586 109.751L85.5586 109.757C85.5543 111.644 84.5774 112.835 83.0737 112.832ZM82.755 111.784C83.7124 111.786 84.3111 111.016 84.314 109.754L84.314 109.749C84.3168 108.498 83.7216 107.72 82.7642 107.717C81.8463 107.715 81.1912 108.513 81.1884 109.741L81.1884 109.747C81.1856 110.98 81.8314 111.781 82.755 111.784ZM89.2042 112.846C87.4641 112.842 86.4136 111.652 86.4178 109.781L86.4179 109.776C86.4221 107.923 87.4949 106.687 89.1563 106.69C90.8176 106.694 91.8343 107.89 91.8302 109.67L91.8293 110.081L87.6337 110.072C87.6536 111.192 88.266 111.847 89.2347 111.849C89.9556 111.85 90.4351 111.48 90.5882 111.035L90.6051 110.991L91.7596 110.993L91.7483 111.055C91.5546 111.995 90.6403 112.849 89.2042 112.846ZM89.1597 107.687C88.3712 107.685 87.7618 108.219 87.6525 109.21L90.6261 109.216C90.527 108.192 89.9537 107.688 89.1597 107.687ZM92.9529 112.736L92.9663 106.811L94.1827 106.814L94.1804 107.828L94.2087 107.828C94.4017 107.136 94.8983 106.703 95.5741 106.705C95.7486 106.705 95.9006 106.734 95.9963 106.75L95.9938 107.883C95.8981 107.843 95.6842 107.814 95.4477 107.814C94.6648 107.812 94.1793 108.323 94.1773 109.207L94.1693 112.739L92.9529 112.736Z" fill="#181818"/>
<path d="M126.047 112.811L126.049 111.944L128.917 109.072C130 107.994 130.243 107.566 130.245 106.936L130.245 106.924C130.241 106.153 129.657 105.6 128.834 105.598C127.882 105.596 127.199 106.235 127.186 107.058L127.186 107.092L125.993 107.09L125.993 107.055C125.996 105.602 127.231 104.552 128.82 104.555C130.38 104.559 131.493 105.541 131.49 106.854L131.49 106.865C131.488 107.795 131.053 108.452 129.591 109.89L127.739 111.7L127.739 111.75L131.608 111.759L131.605 112.824L126.047 112.811ZM135.866 112.969C133.923 112.964 132.767 111.345 132.773 108.766L132.773 108.754C132.778 106.175 133.942 104.567 135.885 104.571C137.823 104.576 138.985 106.189 138.979 108.768L138.979 108.78C138.973 111.359 137.804 112.973 135.866 112.969ZM135.869 111.915C137.023 111.918 137.702 110.726 137.707 108.777L137.707 108.766C137.711 106.818 137.037 105.633 135.883 105.63C134.723 105.627 134.05 106.809 134.046 108.757L134.046 108.768C134.041 110.717 134.709 111.912 135.869 111.915Z" fill="#181818"/>
<path d="M178.324 113.065C176.696 113.061 175.567 112.073 175.457 110.732L175.452 110.665L176.657 110.668L176.662 110.713C176.768 111.445 177.431 112.009 178.338 112.011C179.362 112.014 180.08 111.306 180.082 110.298L180.082 110.286C180.078 109.29 179.365 108.585 178.357 108.582C177.856 108.581 177.422 108.726 177.095 109.018C176.942 109.148 176.812 109.305 176.704 109.485L175.6 109.482L176.011 104.797L180.855 104.808L180.852 105.873L177.028 105.864L176.774 108.438L176.803 108.438C177.17 107.892 177.847 107.584 178.646 107.586C180.201 107.589 181.319 108.712 181.315 110.267L181.315 110.278C181.311 111.928 180.076 113.069 178.324 113.065ZM183.194 107.5C182.778 107.499 182.452 107.172 182.453 106.756C182.454 106.344 182.781 106.018 183.197 106.019C183.609 106.02 183.935 106.348 183.934 106.759C183.933 107.175 183.605 107.501 183.194 107.5ZM183.185 111.73C182.768 111.729 182.442 111.401 182.443 110.99C182.444 110.574 182.771 110.253 183.188 110.254C183.599 110.255 183.925 110.577 183.924 110.994C183.923 111.405 183.596 111.731 183.185 111.73ZM188.259 113.087C186.316 113.083 185.16 111.464 185.165 108.884L185.165 108.873C185.171 106.294 186.335 104.686 188.278 104.69C190.216 104.694 191.378 106.308 191.372 108.887L191.372 108.898C191.366 111.478 190.197 113.092 188.259 113.087ZM188.262 112.034C189.416 112.036 190.095 110.844 190.099 108.895L190.1 108.884C190.104 106.936 189.43 105.751 188.276 105.749C187.116 105.746 186.443 106.928 186.439 108.876L186.439 108.887C186.434 110.836 187.102 112.031 188.262 112.034ZM195.641 113.104C193.697 113.1 192.541 111.481 192.547 108.901L192.547 108.89C192.553 106.311 193.716 104.702 195.66 104.707C197.596 104.711 198.758 106.325 198.752 108.904L198.752 108.915C198.747 111.495 197.577 113.108 195.641 113.104ZM195.643 112.051C196.797 112.053 197.476 110.861 197.48 108.912L197.48 108.901C197.484 106.953 196.812 105.768 195.657 105.765C194.497 105.763 193.824 106.945 193.819 108.893L193.819 108.904C193.815 110.853 194.483 112.048 195.643 112.051ZM202.095 112.984L205.071 104.863L206.434 104.866L209.366 113L208.043 112.997L207.304 110.799L204.173 110.791L203.419 112.987L202.095 112.984ZM205.737 106.211L204.513 109.779L206.963 109.784L205.76 106.211L205.737 106.211ZM210.451 113.002L210.469 104.875L211.928 104.879L214.543 111.372L214.577 111.373L217.227 104.891L218.68 104.894L218.661 113.021L217.513 113.018L217.527 107.021L217.487 107.021L215.024 113.013L214.088 113.011L211.652 107.007L211.613 107.007L211.599 113.005L210.451 113.002Z" fill="#181818"/>
<path d="M53.7255 132.737C51.7313 132.732 50.4894 131.334 50.4944 129.106L50.4944 129.097C50.4995 126.873 51.7526 125.481 53.7419 125.485C55.7264 125.49 56.9682 126.888 56.9632 129.111L56.9632 129.121C56.9581 131.348 55.7148 132.741 53.7255 132.737ZM53.7273 131.929C55.1718 131.933 56.0644 130.831 56.0683 129.119L56.0683 129.109C56.0722 127.387 55.1701 126.296 53.7401 126.292C52.3053 126.289 51.3933 127.371 51.3894 129.099L51.3894 129.108C51.3855 130.835 52.2876 131.926 53.7273 131.929ZM60.2087 132.733C58.7739 132.729 57.8667 131.705 57.8703 130.096L57.8703 130.091C57.8739 128.495 58.8052 127.476 60.2109 127.48C61.4706 127.482 62.2129 128.32 62.3179 129.187L62.3227 129.225L61.4959 129.223L61.4862 129.185C61.3609 128.678 60.9533 128.23 60.2092 128.229C59.3288 128.227 58.7387 128.955 58.7361 130.102L58.7361 130.107C58.7334 131.284 59.335 131.981 60.2104 131.983C60.9011 131.985 61.3445 131.597 61.4869 131.033L61.4967 130.994L62.3284 130.995L62.3235 131.03C62.1851 131.992 61.3517 132.735 60.2087 132.733ZM64.9458 132.743C64.0168 132.741 63.5606 132.322 63.5628 131.354L63.5698 128.285L62.8304 128.283L62.832 127.583L63.5714 127.585L63.5745 126.217L64.4499 126.219L64.4468 127.587L65.4099 127.589L65.4083 128.289L64.4452 128.287L64.4383 131.351C64.4371 131.89 64.675 132.042 65.1274 132.043C65.2295 132.044 65.3269 132.029 65.3998 132.024L65.3982 132.71C65.2912 132.724 65.1112 132.744 64.9458 132.743ZM68.4573 132.751C67.0516 132.748 66.1153 131.729 66.1189 130.119L66.1189 130.11C66.1226 128.499 67.0684 127.495 68.4643 127.498C69.8602 127.501 70.8063 128.505 70.8027 130.12L70.8026 130.13C70.799 131.745 69.8532 132.754 68.4573 132.751ZM68.4638 132.002C69.3539 132.004 69.9342 131.315 69.9369 130.128L69.9369 130.118C69.9396 128.931 69.3576 128.249 68.4626 128.247C67.5823 128.245 66.9873 128.93 66.9847 130.112L66.9846 130.121C66.9819 131.313 67.5689 132 68.4638 132.002ZM74.3665 132.765C73.6418 132.763 73.0785 132.397 72.7637 131.808L72.7442 131.807L72.7422 132.663L71.896 132.662L71.9119 125.643L72.7581 125.645L72.7518 128.451L72.7713 128.451C73.0887 127.869 73.678 127.51 74.393 127.512C75.6625 127.515 76.5259 128.543 76.5223 130.138L76.5223 130.143C76.5186 131.738 75.6602 132.768 74.3665 132.765ZM74.2029 132.015C75.0978 132.017 75.6539 131.304 75.6565 130.141L75.6566 130.136C75.6592 128.984 75.1063 128.262 74.2114 128.26C73.3602 128.258 72.7457 129.001 72.7432 130.13L72.7432 130.134C72.7406 131.267 73.3468 132.013 74.2029 132.015ZM79.6483 132.777C78.1941 132.773 77.321 131.755 77.3246 130.164L77.3246 130.159C77.3281 128.593 78.2254 127.52 79.6068 127.523C80.9881 127.527 81.8272 128.555 81.8237 130.072L81.823 130.384L78.1801 130.375C78.1972 131.416 78.7697 132.025 79.6695 132.028C80.3115 132.029 80.7646 131.708 80.9115 131.276L80.9262 131.233L81.7579 131.234L81.748 131.283C81.5808 132.119 80.7525 132.779 79.6483 132.777ZM79.6002 128.273C78.8658 128.271 78.2908 128.771 78.1962 129.714L80.9637 129.72C80.8832 128.737 80.3395 128.274 79.6002 128.273ZM82.873 132.686L82.8845 127.628L83.7308 127.63L83.7289 128.486L83.7484 128.486C83.9199 127.903 84.3585 127.534 84.9275 127.536C85.0735 127.536 85.1999 127.56 85.2679 127.571L85.2661 128.392C85.1981 128.367 85.0181 128.343 84.8138 128.343C84.1573 128.341 83.7282 128.798 83.7264 129.565L83.7193 132.688L82.873 132.686Z" fill="#181818" fill-opacity="0.48"/>
<path d="M127.836 132.788L127.838 132.185L130.314 129.613C131.264 128.627 131.484 128.249 131.486 127.665L131.486 127.656C131.483 126.941 130.944 126.424 130.18 126.422C129.305 126.42 128.651 127.021 128.65 127.776L128.65 127.8L127.804 127.798L127.804 127.769C127.807 126.553 128.859 125.655 130.167 125.658C131.437 125.661 132.364 126.514 132.361 127.614L132.361 127.623C132.36 128.392 132.003 128.97 130.712 130.285L129.039 131.993L129.039 132.013L132.468 132.021L132.467 132.799L127.836 132.788ZM135.467 132.806L135.481 126.716L135.461 126.716L133.6 128.006L133.602 127.125L135.473 125.787L136.33 125.789L136.314 132.807L135.467 132.806Z" fill="#181818" fill-opacity="0.48"/>
<path d="M181.052 133.025C179.759 133.022 178.389 132.125 178.395 129.523L178.395 129.512C178.4 127.149 179.411 125.77 181.127 125.774C182.319 125.777 183.208 126.459 183.439 127.482L183.453 127.545L182.563 127.543L182.543 127.489C182.336 126.91 181.836 126.549 181.116 126.547C179.808 126.544 179.289 127.813 179.247 129.286C179.242 129.335 179.242 129.383 179.242 129.436L179.261 129.437C179.544 128.815 180.265 128.311 181.219 128.313C182.556 128.316 183.547 129.306 183.544 130.638L183.544 130.648C183.54 132.03 182.487 133.029 181.052 133.025ZM179.448 130.629C179.446 131.529 180.144 132.245 181.045 132.247C181.939 132.249 182.651 131.55 182.653 130.665L182.653 130.656C182.656 129.741 181.99 129.084 181.066 129.081C180.147 129.079 179.45 129.729 179.448 130.624L179.448 130.629ZM185.373 128.08C185.061 128.079 184.819 127.835 184.82 127.523C184.82 127.212 185.064 126.97 185.375 126.971C185.686 126.971 185.93 127.215 185.929 127.526C185.928 127.837 185.684 128.08 185.373 128.08ZM185.364 131.844C185.053 131.843 184.81 131.599 184.811 131.288C184.812 130.976 185.055 130.734 185.367 130.735C185.678 130.735 185.921 130.979 185.92 131.29C185.92 131.601 185.675 131.845 185.364 131.844ZM189.646 133.045C188.032 133.041 187.076 131.643 187.081 129.416L187.082 129.406C187.087 127.179 188.048 125.79 189.663 125.793C191.277 125.797 192.242 127.19 192.237 129.418L192.237 129.427C192.232 131.655 191.261 133.048 189.646 133.045ZM189.648 132.281C190.718 132.284 191.353 131.186 191.357 129.425L191.357 129.416C191.361 127.655 190.731 126.565 189.661 126.562C188.591 126.56 187.966 127.648 187.962 129.408L187.962 129.418C187.958 131.178 188.578 132.279 189.648 132.281ZM195.886 133.059C194.272 133.055 193.316 131.657 193.321 129.43L193.321 129.421C193.326 127.193 194.288 125.804 195.903 125.807C197.518 125.811 198.483 127.205 198.478 129.432L198.478 129.442C198.473 131.669 197.501 133.063 195.886 133.059ZM195.888 132.295C196.958 132.298 197.593 131.2 197.597 129.44L197.597 129.43C197.601 127.67 196.971 126.579 195.901 126.576C194.831 126.574 194.206 127.662 194.202 129.423L194.202 129.432C194.198 131.193 194.818 132.293 195.888 132.295ZM201.475 132.955L204.103 125.942L204.968 125.944L207.56 132.969L206.64 132.967L205.934 130.957L203.109 130.95L202.394 132.957L201.475 132.955ZM204.523 126.994L203.377 130.207L205.673 130.212L204.543 126.994L204.523 126.994ZM208.566 132.971L208.582 125.953L209.594 125.955L212.012 131.875L212.041 131.875L214.487 125.966L215.498 125.968L215.482 132.987L214.665 132.985L214.677 127.562L214.648 127.562L212.394 132.98L211.655 132.978L209.424 127.55L209.395 127.55L209.383 132.973L208.566 132.971Z" fill="#181818" fill-opacity="0.48"/>
</g>
</g>
</g>
</g>
</g>
<defs>
<filter id="filter0_ddddddd_7955_73630" x="0.865345" y="0.493652" width="263.307" height="278.333" filterUnits="userSpaceOnUse" color-interpolation-filters="sRGB">
<feFlood flood-opacity="0" result="BackgroundImageFix"/>
<feColorMatrix in="SourceAlpha" type="matrix" values="0 0 0 0 0 0 0 0 0 0 0 0 0 0 0 0 0 0 127 0" result="hardAlpha"/>
<feOffset dy="31"/>
<feGaussianBlur stdDeviation="11.4"/>
<feComposite in2="hardAlpha" operator="out"/>
<feColorMatrix type="matrix" values="0 0 0 0 0 0 0 0 0 0 0 0 0 0 0 0 0 0 0.055 0"/>
<feBlend mode="normal" in2="BackgroundImageFix" result="effect1_dropShadow_7955_73630"/>
<feColorMatrix in="SourceAlpha" type="matrix" values="0 0 0 0 0 0 0 0 0 0 0 0 0 0 0 0 0 0 127 0" result="hardAlpha"/>
<feOffset dy="15"/>
<feGaussianBlur stdDeviation="5.2"/>
<feComposite in2="hardAlpha" operator="out"/>
<feColorMatrix type="matrix" values="0 0 0 0 0 0 0 0 0 0 0 0 0 0 0 0 0 0 0.05 0"/>
<feBlend mode="normal" in2="effect1_dropShadow_7955_73630" result="effect2_dropShadow_7955_73630"/>
<feColorMatrix in="SourceAlpha" type="matrix" values="0 0 0 0 0 0 0 0 0 0 0 0 0 0 0 0 0 0 127 0" result="hardAlpha"/>
<feOffset dy="9"/>
<feGaussianBlur stdDeviation="2.65"/>
<feComposite in2="hardAlpha" operator="out"/>
<feColorMatrix type="matrix" values="0 0 0 0 0 0 0 0 0 0 0 0 0 0 0 0 0 0 0.047 0"/>
<feBlend mode="normal" in2="effect2_dropShadow_7955_73630" result="effect3_dropShadow_7955_73630"/>
<feColorMatrix in="SourceAlpha" type="matrix" values="0 0 0 0 0 0 0 0 0 0 0 0 0 0 0 0 0 0 127 0" result="hardAlpha"/>
<feOffset dy="5"/>
<feGaussianBlur stdDeviation="1.45"/>
<feComposite in2="hardAlpha" operator="out"/>
<feColorMatrix type="matrix" values="0 0 0 0 0 0 0 0 0 0 0 0 0 0 0 0 0 0 0.047 0"/>
<feBlend mode="normal" in2="effect3_dropShadow_7955_73630" result="effect4_dropShadow_7955_73630"/>
<feColorMatrix in="SourceAlpha" type="matrix" values="0 0 0 0 0 0 0 0 0 0 0 0 0 0 0 0 0 0 127 0" result="hardAlpha"/>
<feOffset dy="3"/>
<feGaussianBlur stdDeviation="0.8"/>
<feComposite in2="hardAlpha" operator="out"/>
<feColorMatrix type="matrix" values="0 0 0 0 0 0 0 0 0 0 0 0 0 0 0 0 0 0 0.043 0"/>
<feBlend mode="normal" in2="effect4_dropShadow_7955_73630" result="effect5_dropShadow_7955_73630"/>
<feColorMatrix in="SourceAlpha" type="matrix" values="0 0 0 0 0 0 0 0 0 0 0 0 0 0 0 0 0 0 127 0" result="hardAlpha"/>
<feOffset dy="2"/>
<feGaussianBlur stdDeviation="0.4"/>
<feComposite in2="hardAlpha" operator="out"/>
<feColorMatrix type="matrix" values="0 0 0 0 0 0 0 0 0 0 0 0 0 0 0 0 0 0 0.04 0"/>
<feBlend mode="normal" in2="effect5_dropShadow_7955_73630" result="effect6_dropShadow_7955_73630"/>
<feColorMatrix in="SourceAlpha" type="matrix" values="0 0 0 0 0 0 0 0 0 0 0 0 0 0 0 0 0 0 127 0" result="hardAlpha"/>
<feOffset dy="1"/>
<feGaussianBlur stdDeviation="0.2"/>
<feComposite in2="hardAlpha" operator="out"/>
<feColorMatrix type="matrix" values="0 0 0 0 0 0 0 0 0 0 0 0 0 0 0 0 0 0 0.03 0"/>
<feBlend mode="normal" in2="effect6_dropShadow_7955_73630" result="effect7_dropShadow_7955_73630"/>
<feBlend mode="normal" in="SourceGraphic" in2="effect7_dropShadow_7955_73630" result="shape"/>
</filter>
<filter id="filter1_di_7955_73630" x="7.31189" y="-5.0896" width="250.681" height="70.743" filterUnits="userSpaceOnUse" color-interpolation-filters="sRGB">
<feFlood flood-opacity="0" result="BackgroundImageFix"/>
<feColorMatrix in="SourceAlpha" type="matrix" values="0 0 0 0 0 0 0 0 0 0 0 0 0 0 0 0 0 0 127 0" result="hardAlpha"/>
<feOffset dy="10.4853"/>
<feGaussianBlur stdDeviation="8.38821"/>
<feComposite in2="hardAlpha" operator="out"/>
<feColorMatrix type="matrix" values="0 0 0 0 0.14902 0 0 0 0 0.14902 0 0 0 0 0.14902 0 0 0 0.24 0"/>
<feBlend mode="normal" in2="BackgroundImageFix" result="effect1_dropShadow_7955_73630"/>
<feBlend mode="normal" in="SourceGraphic" in2="effect1_dropShadow_7955_73630" result="shape"/>
<feColorMatrix in="SourceAlpha" type="matrix" values="0 0 0 0 0 0 0 0 0 0 0 0 0 0 0 0 0 0 127 0" result="hardAlpha"/>
<feOffset dy="1.04853"/>
<feGaussianBlur stdDeviation="2.09705"/>
<feComposite in2="hardAlpha" operator="arithmetic" k2="-1" k3="1"/>
<feColorMatrix type="matrix" values="0 0 0 0 0.14902 0 0 0 0 0.14902 0 0 0 0 0.14902 0 0 0 0.08 0"/>
<feBlend mode="normal" in2="shape" result="effect2_innerShadow_7955_73630"/>
</filter>
<clipPath id="clip0_7955_73630">
<rect x="24.1731" y="0.493652" width="217.2" height="224.041" rx="12.96" transform="rotate(0.129855 24.1731 0.493652)" fill="white"/>
</clipPath>
<clipPath id="clip1_7955_73630">
<rect width="217.2" height="224.041" fill="white" transform="translate(24.1731 0.493652) rotate(0.129855)"/>
</clipPath>
<clipPath id="clip2_7955_73630">
<rect width="217.2" height="224.041" fill="white" transform="translate(24.1731 0.493652) rotate(0.129855)"/>
</clipPath>
</defs>
</svg>
