<svg width="391" height="137" viewBox="0 0 391 137" fill="none" xmlns="http://www.w3.org/2000/svg">
<g filter="url(#filter0_ddddddd_7955_73576)">
<g clip-path="url(#clip0_7955_73576)">
<rect x="23.22" y="0.439941" width="344.73" height="81.8422" rx="12.96" fill="white"/>
<g clip-path="url(#clip1_7955_73576)">
<g clip-path="url(#clip2_7955_73576)">
<path d="M59.915 22.1121H48.3457V38.3092H59.915V22.1121Z" fill="#B8CEDC"/>
<path d="M59.915 44.0939H48.3457V40.6231H59.915V44.0939Z" fill="#B8CEDC"/>
<path d="M70.3277 22.1121H62.2291V27.8967H70.3277V22.1121Z" fill="#B8CEDC"/>
<path d="M62.2302 44.0939H70.3287V30.2106H62.2302V44.0939Z" fill="#B8CEDC"/>
<path d="M58.4037 20.7324H46.9674V37.3749H58.4037V20.7324Z" stroke="#184363" stroke-width="0.711517"/>
<path d="M58.4037 43.1598H46.9674V39.2436H58.4037V43.1598Z" stroke="#184363" stroke-width="0.711517"/>
<path d="M69.3932 20.7324H60.8493V26.9625H69.3932V20.7324Z" stroke="#184363" stroke-width="0.711517"/>
<path d="M69.3932 28.8308H60.8493V43.1595H69.3932V28.8308Z" stroke="#184363" stroke-width="0.711517"/>
<path d="M43.8129 54.533V55.2861H41.9954V60.2637H41.2013V55.2861H39.3838V54.533H43.8129ZM47.2895 58.0942C47.2895 58.1843 47.2814 58.3071 47.2731 58.4053H44.0803C44.154 59.1749 44.6779 59.6661 45.4147 59.6661C45.9223 59.6661 46.3726 59.4368 46.5772 59.0766L47.1831 59.4696C46.8802 60.0099 46.2088 60.3456 45.3902 60.3456C44.2522 60.3456 43.3435 59.445 43.3435 58.2498C43.3435 57.0954 44.2358 56.1867 45.382 56.1867C46.4545 56.1867 47.2895 57.0218 47.2895 58.0942ZM44.1131 57.8322H46.5118C46.4626 57.2346 45.9796 56.817 45.3493 56.817C44.7188 56.817 44.2522 57.2182 44.1131 57.8322ZM52.7634 56.1867C53.7376 56.1867 54.3925 56.8335 54.3925 57.8487V60.2637H53.6394V57.9796C53.6394 57.3083 53.2546 56.8907 52.6405 56.8907C52.223 56.8907 51.8055 57.1773 51.6009 57.5212C51.6172 57.5949 51.6254 57.6767 51.6336 57.7585V60.2637H50.8804V57.9796C50.8804 57.3083 50.4874 56.8907 49.898 56.8907C49.4477 56.8907 49.0711 57.1445 48.8828 57.5129V60.2637H48.1214V56.2685H48.8828V56.8335C49.0793 56.5469 49.4804 56.1867 50.1353 56.1867C50.7249 56.1867 51.1505 56.4241 51.4043 56.899C51.6745 56.5388 52.1575 56.1867 52.7634 56.1867ZM57.5406 56.1867C58.6458 56.1867 59.4891 57.0954 59.4891 58.2661C59.4891 59.4368 58.6458 60.3456 57.5406 60.3456C56.9839 60.3456 56.419 60.059 56.2061 59.6825V61.721H55.4448V56.2685H56.2061V56.8498C56.4272 56.4732 56.9839 56.1867 57.5406 56.1867ZM57.3933 59.6334C58.1628 59.6334 58.7522 59.0521 58.7522 58.2661C58.7522 57.4884 58.1628 56.899 57.3933 56.899C56.902 56.899 56.419 57.1773 56.2061 57.5621V58.962C56.419 59.355 56.902 59.6334 57.3933 59.6334ZM61.0831 54.533V60.2637H60.3217V54.533H61.0831ZM65.1107 56.2685H65.872V60.2637H65.1107V59.6825C64.8896 60.059 64.3329 60.3456 63.7762 60.3456C62.671 60.3456 61.8277 59.4368 61.8277 58.2661C61.8277 57.0954 62.671 56.1867 63.7762 56.1867C64.3411 56.1867 64.8978 56.4732 65.1107 56.8498V56.2685ZM63.9236 59.6334C64.4148 59.6334 64.8978 59.355 65.1107 58.9702V57.5703C64.8978 57.1773 64.4148 56.899 63.9236 56.899C63.154 56.899 62.5645 57.4802 62.5645 58.2661C62.5645 59.0438 63.154 59.6334 63.9236 59.6334ZM69.1116 59.5679L69.1526 60.231C69.0379 60.2801 68.8742 60.3128 68.7186 60.3128C67.8754 60.3128 67.2777 59.7725 67.2777 58.8228V56.989H66.5V56.2685H67.2777V55.1879H68.0309V56.2685H69.1116V56.989H68.0309V58.7901C68.0309 59.3059 68.3747 59.6088 68.8168 59.6088C68.9069 59.6088 69.0297 59.5924 69.1116 59.5679ZM73.4169 58.0942C73.4169 58.1843 73.4088 58.3071 73.4006 58.4053H70.2077C70.2814 59.1749 70.8053 59.6661 71.5422 59.6661C72.0498 59.6661 72.5 59.4368 72.7047 59.0766L73.3105 59.4696C73.0076 60.0099 72.3363 60.3456 71.5176 60.3456C70.3797 60.3456 69.4709 59.445 69.4709 58.2498C69.4709 57.0954 70.3632 56.1867 71.5095 56.1867C72.5819 56.1867 73.4169 57.0218 73.4169 58.0942ZM70.2405 57.8322H72.6392C72.5901 57.2346 72.1071 56.817 71.4767 56.817C70.8463 56.817 70.3797 57.2182 70.2405 57.8322ZM75.6166 60.3456C74.9944 60.3456 74.3395 60.1164 73.9548 59.7725L74.2658 59.2076C74.5769 59.5105 75.15 59.7152 75.6085 59.7152C76.0751 59.7152 76.3862 59.4778 76.3862 59.1749C76.3862 58.2825 74.0775 58.8802 74.0775 57.4065C74.0775 56.6779 74.6915 56.1867 75.5921 56.1867C76.1324 56.1867 76.6973 56.3586 77.0411 56.6943L76.7136 57.2674C76.4189 56.9808 75.8786 56.8253 75.5184 56.8253C75.1009 56.8253 74.8307 57.0299 74.8307 57.3411C74.8307 58.1515 77.1475 57.6358 77.1475 59.1503C77.1475 59.838 76.5254 60.3456 75.6166 60.3456Z" fill="#9D9D9D"/>
<path d="M119.902 22.3185H100.64V27.1534H107.271V41.8195H113.53V27.1534H119.902V22.3185Z" fill="url(#paint0_linear_7955_73576)"/>
<path fill-rule="evenodd" clip-rule="evenodd" d="M99.2789 22.3185C99.2789 22.1248 99.436 21.9677 99.6297 21.9677H118.892C119.086 21.9677 119.243 22.1248 119.243 22.3185V27.1534C119.243 27.3472 119.086 27.5043 118.892 27.5043H112.871V41.8195C112.871 42.0133 112.714 42.1704 112.521 42.1704H106.261C106.067 42.1704 105.91 42.0133 105.91 41.8195V27.5043H99.6297C99.436 27.5043 99.2789 27.3472 99.2789 27.1534V22.3185ZM99.9806 22.6694V26.8026H106.261C106.455 26.8026 106.612 26.9597 106.612 27.1534V41.4687H112.169V27.1534C112.169 26.9597 112.326 26.8026 112.521 26.8026H118.541V22.6694H99.9806Z" fill="#171717"/>
<path d="M106.741 54.533V55.2861H104.923V60.2637H104.13V55.2861H102.312V54.533H106.741ZM110.217 58.0942C110.217 58.1843 110.21 58.3071 110.201 58.4053H107.008C107.082 59.1749 107.606 59.6661 108.343 59.6661C108.85 59.6661 109.3 59.4368 109.505 59.0766L110.111 59.4696C109.808 60.0099 109.137 60.3456 108.318 60.3456C107.18 60.3456 106.272 59.445 106.272 58.2498C106.272 57.0954 107.164 56.1867 108.31 56.1867C109.382 56.1867 110.217 57.0218 110.217 58.0942ZM107.041 57.8322H109.44C109.39 57.2346 108.908 56.817 108.277 56.817C107.647 56.817 107.18 57.2182 107.041 57.8322ZM114.281 60.2637H113.373L112.341 58.8311L111.31 60.2637H110.417L111.899 58.2006L110.507 56.2685H111.408L112.349 57.5703L113.283 56.2685H114.184L112.8 58.2006L114.281 60.2637ZM117.153 59.5679L117.194 60.231C117.079 60.2801 116.916 60.3128 116.76 60.3128C115.917 60.3128 115.319 59.7725 115.319 58.8228V56.989H114.541V56.2685H115.319V55.1879H116.072V56.2685H117.153V56.989H116.072V58.7901C116.072 59.3059 116.417 59.6088 116.858 59.6088C116.948 59.6088 117.071 59.5924 117.153 59.5679Z" fill="#9D9D9D"/>
<path d="M161.81 22.0931L158.596 28.549L151.48 29.5525L156.659 34.6119L155.431 41.6923L161.803 38.3521L168.167 41.6923L166.96 34.6189L172.118 29.5805L164.996 28.542L161.81 22.0931Z" fill="url(#paint1_linear_7955_73576)"/>
<path fill-rule="evenodd" clip-rule="evenodd" d="M160.664 22.1072C160.798 22.1074 160.92 22.1832 160.979 22.3027L164.083 28.5863L171.023 29.5983C171.155 29.6176 171.265 29.7101 171.306 29.8369C171.347 29.9639 171.313 30.1032 171.218 30.1965L166.191 35.1063L167.368 41.9982C167.39 42.1298 167.336 42.2627 167.228 42.3411C167.12 42.4196 166.977 42.43 166.859 42.368L160.657 39.1133L154.448 42.368C154.33 42.4301 154.186 42.4195 154.079 42.3408C153.971 42.2622 153.917 42.129 153.94 41.9973L155.136 35.0989L150.089 30.1684C149.994 30.0749 149.96 29.9352 150.002 29.8081C150.043 29.681 150.153 29.5887 150.286 29.57L157.218 28.5923L160.35 22.3017C160.409 22.1824 160.531 22.107 160.664 22.1072ZM160.663 23.2478L157.764 29.0703C157.713 29.1738 157.614 29.2452 157.499 29.2614L151.09 30.1652L155.758 34.7259C155.841 34.8067 155.879 34.9229 155.86 35.0368L154.753 41.4162L160.494 38.4063C160.597 38.3528 160.718 38.3528 160.82 38.4064L166.556 41.4169L165.469 35.0429C165.45 34.9293 165.487 34.8135 165.57 34.7329L170.22 30.1903L163.8 29.2541C163.685 29.2375 163.586 29.1657 163.535 29.0623L160.663 23.2478Z" fill="#171717"/>
<path d="M149.258 54.451C149.978 54.451 150.764 54.7785 151.132 55.2288L150.666 55.8428C150.306 55.4498 149.749 55.2124 149.201 55.2124C148.595 55.2124 148.16 55.5316 148.16 55.982C148.16 57.3655 151.296 56.5796 151.296 58.6509C151.296 59.5596 150.527 60.3455 149.299 60.3455C148.43 60.3455 147.603 59.9526 147.104 59.4368L147.603 58.8473C148.046 59.2649 148.586 59.5841 149.299 59.5841C149.994 59.5841 150.486 59.2075 150.486 58.659C150.486 57.3246 147.366 58.1351 147.366 56.0392C147.366 55.1305 148.16 54.451 149.258 54.451ZM154.127 59.5678L154.168 60.2309C154.054 60.2801 153.889 60.3128 153.734 60.3128C152.891 60.3128 152.293 59.7725 152.293 58.8228V56.9889H151.516V56.2685H152.293V55.1878H153.047V56.2685H154.127V56.9889H153.047V58.7901C153.047 59.3058 153.39 59.6087 153.833 59.6087C153.923 59.6087 154.045 59.5924 154.127 59.5678ZM155.324 54.4755C155.594 54.4755 155.832 54.713 155.832 54.9831C155.832 55.2615 155.594 55.4907 155.324 55.4907C155.046 55.4907 154.816 55.2615 154.816 54.9831C154.816 54.713 155.046 54.4755 155.324 54.4755ZM154.939 56.2685H155.701V60.2636H154.939V56.2685ZM160.422 59.2812C160.111 59.928 159.423 60.3455 158.604 60.3455C157.434 60.3455 156.533 59.445 156.533 58.2743C156.533 57.0953 157.434 56.1866 158.604 56.1866C159.374 56.1866 160.029 56.5714 160.307 57.1608L159.661 57.5129C159.497 57.1445 159.087 56.9071 158.604 56.9071C157.843 56.9071 157.27 57.5047 157.27 58.2743C157.27 59.0356 157.843 59.6251 158.604 59.6251C159.12 59.6251 159.554 59.3877 159.758 58.9783L160.422 59.2812ZM164.657 60.2636H163.667L161.817 58.3561V60.2636H161.055V54.5329H161.817V58.0205L163.585 56.2685H164.526L162.57 58.1842L164.657 60.2636ZM168.69 58.0942C168.69 58.1842 168.682 58.307 168.673 58.4052H165.481C165.555 59.1748 166.078 59.666 166.815 59.666C167.323 59.666 167.773 59.4367 167.977 59.0766L168.583 59.4695C168.281 60.0098 167.609 60.3455 166.791 60.3455C165.653 60.3455 164.744 59.445 164.744 58.2497C164.744 57.0953 165.636 56.1866 166.782 56.1866C167.855 56.1866 168.69 57.0217 168.69 58.0942ZM165.514 57.8321H167.913C167.863 57.2345 167.38 56.817 166.75 56.817C166.12 56.817 165.653 57.2182 165.514 57.8321ZM171.331 56.1866C171.511 56.1866 171.658 56.2193 171.774 56.2521L171.733 56.9644C171.601 56.9152 171.429 56.8907 171.282 56.8907C170.955 56.8907 170.521 57.1527 170.283 57.6029V60.2636H169.522V56.2685H170.283V56.8497C170.504 56.4486 170.947 56.1866 171.331 56.1866ZM173.712 60.3455C173.09 60.3455 172.435 60.1163 172.05 59.7725L172.361 59.2075C172.672 59.5104 173.245 59.7151 173.703 59.7151C174.17 59.7151 174.481 59.4777 174.481 59.1748C174.481 58.2825 172.173 58.8801 172.173 57.4065C172.173 56.6779 172.787 56.1866 173.688 56.1866C174.228 56.1866 174.793 56.3585 175.136 56.6942L174.809 57.2673C174.514 56.9807 173.974 56.8252 173.613 56.8252C173.196 56.8252 172.926 57.0298 172.926 57.341C172.926 58.1514 175.243 57.6357 175.243 59.1503C175.243 59.8379 174.62 60.3455 173.712 60.3455Z" fill="#9D9D9D"/>
<path d="M206.153 24.599H209.089L210.548 22.4447H215.944L217.411 24.599H220.556C221.977 24.599 223.13 25.7516 223.129 27.1731L223.124 39.7036C223.124 41.1241 221.972 42.2755 220.551 42.2755H206.153C204.732 42.2755 203.58 41.1236 203.58 39.7026V27.172C203.58 25.751 204.732 24.599 206.153 24.599Z" fill="url(#paint2_linear_7955_73576)"/>
<path d="M217.051 32.4721C217.051 35.1346 214.892 37.2929 212.23 37.2929C209.567 37.2929 207.409 35.1346 207.409 32.4721C207.409 29.8097 209.567 27.6512 212.23 27.6512C214.892 27.6512 217.051 29.8097 217.051 32.4721Z" fill="white"/>
<path fill-rule="evenodd" clip-rule="evenodd" d="M212.232 28.0022C209.763 28.0022 207.762 30.0035 207.762 32.4723C207.762 34.9409 209.763 36.9422 212.232 36.9422C214.701 36.9422 216.702 34.9409 216.702 32.4723C216.702 30.0035 214.701 28.0022 212.232 28.0022ZM207.06 32.4723C207.06 29.616 209.376 27.3005 212.232 27.3005C215.089 27.3005 217.404 29.616 217.404 32.4723C217.404 35.3285 215.089 37.644 212.232 37.644C209.376 37.644 207.06 35.3285 207.06 32.4723Z" fill="#171717"/>
<path fill-rule="evenodd" clip-rule="evenodd" d="M209.028 21.5183H214.796L216.263 23.6726H220.252C221.298 23.6726 222.147 24.5213 222.147 25.568L222.141 40.1569C222.14 41.203 221.292 42.0508 220.246 42.0508H203.79C202.743 42.0508 201.895 41.2026 201.895 40.1561V25.5673C201.895 24.5209 202.743 23.6726 203.79 23.6726H207.569L209.028 21.5183ZM209.401 22.22L207.941 24.3743H203.79C203.131 24.3743 202.597 24.9084 202.597 25.5673V40.1561C202.597 40.815 203.131 41.3491 203.79 41.3491H220.246C220.905 41.3491 221.439 40.8153 221.439 40.1566L221.444 25.5677C221.445 24.9087 220.911 24.3743 220.252 24.3743H215.891L214.425 22.22H209.401Z" fill="#171717"/>
<path d="M218.596 28.0724C219.1 28.0724 219.508 27.664 219.508 27.1602C219.508 26.6563 219.1 26.2479 218.596 26.2479C218.092 26.2479 217.684 26.6563 217.684 27.1602C217.684 27.664 218.092 28.0724 218.596 28.0724Z" fill="#171717"/>
<path d="M202.377 54.5329H203.22L204.882 59.0275L206.544 54.5329H207.371L205.209 60.2637H204.547L202.377 54.5329ZM208.208 54.4756C208.478 54.4756 208.716 54.713 208.716 54.9832C208.716 55.2615 208.478 55.4908 208.208 55.4908C207.93 55.4908 207.7 55.2615 207.7 54.9832C207.7 54.713 207.93 54.4756 208.208 54.4756ZM207.823 56.2685H208.585V60.2637H207.823V56.2685ZM212.7 54.5329H213.462V60.2637H212.7V59.6825C212.479 60.059 211.922 60.3456 211.366 60.3456C210.26 60.3456 209.417 59.4368 209.417 58.2661C209.417 57.0954 210.26 56.1867 211.366 56.1867C211.931 56.1867 212.487 56.4732 212.7 56.8498V54.5329ZM211.513 59.6333C212.004 59.6333 212.487 59.355 212.7 58.9702V57.5703C212.487 57.1773 212.004 56.8989 211.513 56.8989C210.743 56.8989 210.154 57.4802 210.154 58.2661C210.154 59.0438 210.743 59.6333 211.513 59.6333ZM218.152 58.0942C218.152 58.1843 218.144 58.3071 218.135 58.4053H214.943C215.017 59.1749 215.541 59.666 216.278 59.666C216.785 59.666 217.235 59.4368 217.44 59.0766L218.045 59.4696C217.743 60.0099 217.071 60.3456 216.253 60.3456C215.115 60.3456 214.206 59.445 214.206 58.2497C214.206 57.0954 215.098 56.1867 216.244 56.1867C217.317 56.1867 218.152 57.0218 218.152 58.0942ZM214.976 57.8322H217.375C217.325 57.2346 216.842 56.817 216.212 56.817C215.582 56.817 215.115 57.2182 214.976 57.8322ZM220.746 56.1867C221.901 56.1867 222.809 57.0954 222.809 58.2743C222.809 59.445 221.901 60.3456 220.746 60.3456C219.584 60.3456 218.684 59.445 218.684 58.2743C218.684 57.0954 219.584 56.1867 220.746 56.1867ZM220.746 56.9071C219.993 56.9071 219.42 57.4966 219.42 58.2743C219.42 59.0357 219.993 59.6251 220.746 59.6251C221.492 59.6251 222.072 59.0357 222.072 58.2743C222.072 57.4966 221.492 56.9071 220.746 56.9071Z" fill="#9D9D9D"/>
<path d="M271.214 36.8999H256.225V41.1383H271.214V36.8999Z" fill="url(#paint3_linear_7955_73576)"/>
<path fill-rule="evenodd" clip-rule="evenodd" d="M262.167 30.5868C262.296 30.4419 262.284 30.2192 262.138 30.0901C261.994 29.962 261.773 29.9746 261.644 30.1185L260.569 31.3186C260.439 31.4635 260.452 31.6863 260.597 31.8154C260.742 31.9435 260.963 31.9308 261.092 31.787L262.167 30.5868ZM263.951 30.3956C264.098 30.5254 264.11 30.7499 263.978 30.8945L261.115 34.0336C260.986 34.1754 260.766 34.187 260.623 34.0597C260.476 33.9299 260.465 33.7053 260.597 33.5607L263.459 30.4216C263.589 30.2798 263.808 30.2682 263.951 30.3956ZM264.254 32.007C264.4 32.1367 264.413 32.3607 264.281 32.5055L262.871 34.0572C262.743 34.1995 262.523 34.2113 262.379 34.0838C262.233 33.9541 262.221 33.73 262.353 33.5853L263.762 32.0336C263.89 31.8913 264.11 31.8795 264.254 32.007Z" fill="#AAD695"/>
<path fill-rule="evenodd" clip-rule="evenodd" d="M256.717 22.655H272.393V41.4894H256.717V22.655ZM257.418 37.272V40.7877H271.691V37.272H257.418ZM257.418 36.5703H271.691V23.3568H257.418V36.5703ZM258.301 23.7638H270.666V36.1282H258.301V23.7638ZM259.003 24.4655V35.4265H269.964V24.4655H259.003Z" fill="#171717"/>
<path d="M254.213 54.533C255.22 54.533 255.973 55.2616 255.973 56.2358C255.973 57.21 255.22 57.9468 254.213 57.9468H252.805V60.2637H252.011V54.533H254.213ZM254.213 57.1937C254.762 57.1937 255.187 56.7761 255.187 56.2358C255.187 55.6955 254.762 55.2861 254.213 55.2861H252.805V57.1937H254.213ZM258.837 56.1867C259.828 56.1867 260.475 56.8907 260.475 57.9796V60.2637H259.722V58.086C259.722 57.382 259.296 56.9317 258.666 56.9317C258.199 56.9317 257.773 57.1773 257.536 57.5621V60.2637H256.774V54.533H257.536V56.8416C257.798 56.4487 258.297 56.1867 258.837 56.1867ZM263.374 56.1867C264.528 56.1867 265.437 57.0954 265.437 58.2743C265.437 59.445 264.528 60.3456 263.374 60.3456C262.211 60.3456 261.311 59.445 261.311 58.2743C261.311 57.0954 262.211 56.1867 263.374 56.1867ZM263.374 56.9072C262.62 56.9072 262.048 57.4966 262.048 58.2743C262.048 59.0357 262.62 59.6251 263.374 59.6251C264.119 59.6251 264.7 59.0357 264.7 58.2743C264.7 57.4966 264.119 56.9072 263.374 56.9072ZM268.338 59.5679L268.379 60.231C268.265 60.2801 268.101 60.3128 267.946 60.3128C267.102 60.3128 266.505 59.7725 266.505 58.8228V56.989H265.727V56.2685H266.505V55.1879H267.258V56.2685H268.338V56.989H267.258V58.7901C267.258 59.3059 267.602 59.6088 268.044 59.6088C268.134 59.6088 268.257 59.5924 268.338 59.5679ZM270.761 56.1867C271.915 56.1867 272.824 57.0954 272.824 58.2743C272.824 59.445 271.915 60.3456 270.761 60.3456C269.598 60.3456 268.698 59.445 268.698 58.2743C268.698 57.0954 269.598 56.1867 270.761 56.1867ZM270.761 56.9072C270.007 56.9072 269.435 57.4966 269.435 58.2743C269.435 59.0357 270.007 59.6251 270.761 59.6251C271.506 59.6251 272.087 59.0357 272.087 58.2743C272.087 57.4966 271.506 56.9072 270.761 56.9072ZM275.027 60.3456C274.406 60.3456 273.751 60.1164 273.365 59.7725L273.677 59.2076C273.988 59.5105 274.561 59.7152 275.019 59.7152C275.486 59.7152 275.797 59.4778 275.797 59.1749C275.797 58.2825 273.489 58.8802 273.489 57.4065C273.489 56.6779 274.102 56.1867 275.003 56.1867C275.543 56.1867 276.108 56.3586 276.452 56.6943L276.124 57.2674C275.83 56.9808 275.29 56.8253 274.929 56.8253C274.511 56.8253 274.241 57.0299 274.241 57.3411C274.241 58.1515 276.559 57.6358 276.559 59.1503C276.559 59.838 275.936 60.3456 275.027 60.3456Z" fill="#9D9D9D"/>
<path d="M312.76 36.9436C311.993 38.8343 312.838 40.3323 313.063 41.2188C311.016 40.2181 310.766 37.786 310.821 36.2613C310.857 35.2132 311.51 33.7348 309.545 35.0876C307.394 36.5682 306.444 35.5335 306.066 33.986C305.687 32.4385 307.048 30.7125 307.096 31.1775C307.143 31.6425 306.96 33.0116 307.545 33.7383C308.221 33.0023 309.323 31.6389 311.314 32.0247C314.039 32.553 313.319 35.5662 312.76 36.9436Z" fill="url(#paint4_linear_7955_73576)"/>
<path d="M313.492 39.4162C313.011 37.1759 314.157 36.5105 314.686 36.5077L315.312 37.3312L316.32 37.6212C316.714 39.5344 313.943 41.1755 312.548 41.0509C312.909 40.9028 313.64 40.1057 313.492 39.4162Z" fill="#55B5E6"/>
<path fill-rule="evenodd" clip-rule="evenodd" d="M324.594 22.5961C324.174 22.3536 323.638 22.4842 323.376 22.8926L314.804 36.279C314.681 36.4697 314.623 36.6806 314.623 36.8882C314.31 36.948 313.969 37.1284 313.711 37.4844C313.388 37.9295 313.225 38.6055 313.338 39.5692C313.368 39.8283 313.291 40.1214 313.155 40.3749C313.089 40.4994 313.012 40.6052 312.939 40.6842C312.861 40.767 312.804 40.8035 312.777 40.8142C312.627 40.8756 312.54 41.0313 312.563 41.1913C312.588 41.3512 312.718 41.4738 312.879 41.4883C313.648 41.5569 314.789 41.355 315.718 40.8308C316.647 40.3069 317.429 39.4169 317.323 38.1056C317.439 38.0111 317.539 37.8921 317.612 37.7518L324.944 23.8043C325.171 23.373 325.016 22.8397 324.594 22.5961ZM316.631 38.3596C316.484 38.3627 316.336 38.3377 316.192 38.2816L315.346 37.9508C315.137 37.8689 314.967 37.7333 314.845 37.5671C314.685 37.5728 314.456 37.6517 314.279 37.8963C314.094 38.1516 313.935 38.6305 314.035 39.4879C314.086 39.9292 313.956 40.3673 313.774 40.7066C313.764 40.7238 313.755 40.7408 313.745 40.7576C314.269 40.6834 314.86 40.5089 315.373 40.2196C316.104 39.8075 316.622 39.2007 316.631 38.3596ZM323.967 23.271C324.026 23.1784 324.148 23.1488 324.244 23.2038C324.339 23.259 324.374 23.38 324.323 23.4777L316.992 37.4253C316.888 37.6215 316.654 37.7088 316.448 37.628L315.602 37.2972C315.346 37.1973 315.246 36.8885 315.394 36.6574L323.967 23.271Z" fill="#171717"/>
<path d="M309.016 54.5329C310.023 54.5329 310.776 55.2615 310.776 56.2358C310.776 57.21 310.023 57.9468 309.016 57.9468H307.608V60.2637H306.814V54.5329H309.016ZM309.016 57.1936C309.564 57.1936 309.99 56.7761 309.99 56.2358C309.99 55.6954 309.564 55.2861 309.016 55.2861H307.608V57.1936H309.016ZM314.327 56.2685H315.089V60.2637H314.327V59.6825C314.106 60.059 313.55 60.3456 312.993 60.3456C311.888 60.3456 311.044 59.4368 311.044 58.2661C311.044 57.0954 311.888 56.1867 312.993 56.1867C313.558 56.1867 314.115 56.4732 314.327 56.8498V56.2685ZM313.14 59.6333C313.631 59.6333 314.115 59.355 314.327 58.9702V57.5703C314.115 57.1773 313.631 56.8989 313.14 56.8989C312.371 56.8989 311.781 57.4802 311.781 58.2661C311.781 59.0438 312.371 59.6333 313.14 59.6333ZM316.519 54.4756C316.789 54.4756 317.026 54.713 317.026 54.9832C317.026 55.2615 316.789 55.4908 316.519 55.4908C316.24 55.4908 316.011 55.2615 316.011 54.9832C316.011 54.713 316.24 54.4756 316.519 54.4756ZM316.135 56.2685H316.896V60.2637H316.135V56.2685ZM320.004 56.1867C321.003 56.1867 321.642 56.8907 321.642 57.9796V60.2637H320.888V58.086C320.888 57.382 320.471 56.9316 319.832 56.9316C319.374 56.9316 318.924 57.1773 318.703 57.5703V60.2637H317.941V56.2685H318.703V56.8498C318.948 56.4487 319.464 56.1867 320.004 56.1867ZM324.692 59.5678L324.733 60.231C324.619 60.2801 324.455 60.3128 324.3 60.3128C323.456 60.3128 322.858 59.7725 322.858 58.8228V56.989H322.081V56.2685H322.858V55.1878H323.612V56.2685H324.692V56.989H323.612V58.7901C323.612 59.3058 323.955 59.6088 324.398 59.6088C324.488 59.6088 324.61 59.5924 324.692 59.5678Z" fill="#9D9D9D"/>
<path d="M363.059 39.7558C358.947 36.6401 364.383 26.6755 367.452 22.2617C368.732 24.0511 371.774 28.4018 373.27 33.4753C375.122 39.7558 368.264 43.6993 363.059 39.7558Z" fill="url(#paint5_linear_7955_73576)"/>
<path fill-rule="evenodd" clip-rule="evenodd" d="M366.423 22.2001L366.713 22.6048C367.994 24.3969 371.067 28.7887 372.581 33.9232C373.553 37.2163 372.237 39.9372 369.966 41.2977C367.705 42.6521 364.534 42.6374 361.822 40.5826C360.679 39.7161 360.225 38.3868 360.203 36.8808C360.182 35.3794 360.587 33.6585 361.207 31.9245C362.45 28.4531 364.594 24.8304 366.139 22.6086L366.423 22.2001ZM366.432 23.4219C364.939 25.6323 363.009 28.9731 361.868 32.161C361.26 33.8593 360.885 35.4895 360.905 36.8708C360.925 38.2473 361.334 39.3319 362.246 40.0233C364.739 41.912 367.6 41.8972 369.605 40.6957C371.601 39.5002 372.789 37.1091 371.908 34.1217C370.532 29.458 367.83 25.4027 366.432 23.4219Z" fill="#171717"/>
<path d="M352.606 58.831C352.295 59.7315 351.296 60.3455 350.142 60.3455C348.488 60.3455 347.269 59.0602 347.269 57.3819C347.269 55.7282 348.488 54.451 350.142 54.451C351.247 54.451 352.213 55.0159 352.541 55.8346L351.837 56.1784C351.566 55.5972 350.912 55.2124 350.142 55.2124C348.923 55.2124 348.079 56.1457 348.079 57.3819C348.079 58.6427 348.923 59.5841 350.142 59.5841C350.953 59.5841 351.64 59.1584 351.894 58.5035L352.606 58.831ZM356.435 56.2685H357.196V60.2636H356.435V59.6824C356.213 60.059 355.656 60.3455 355.1 60.3455C353.995 60.3455 353.152 59.4367 353.152 58.266C353.152 57.0953 353.995 56.1866 355.1 56.1866C355.664 56.1866 356.221 56.4731 356.435 56.8497V56.2685ZM355.247 59.6333C355.739 59.6333 356.221 59.3549 356.435 58.9702V57.5702C356.221 57.1772 355.739 56.8989 355.247 56.8989C354.478 56.8989 353.888 57.4802 353.888 58.266C353.888 59.0438 354.478 59.6333 355.247 59.6333ZM360.051 56.1866C360.231 56.1866 360.378 56.2193 360.492 56.2521L360.451 56.9644C360.321 56.9152 360.149 56.8907 360.001 56.8907C359.674 56.8907 359.24 57.1527 359.003 57.6029V60.2636H358.241V56.2685H359.003V56.8497C359.224 56.4486 359.666 56.1866 360.051 56.1866ZM363.95 54.5329H364.711V60.2636H363.95V59.6824C363.728 60.059 363.172 60.3455 362.615 60.3455C361.51 60.3455 360.667 59.4367 360.667 58.266C360.667 57.0953 361.51 56.1866 362.615 56.1866C363.18 56.1866 363.736 56.4731 363.95 56.8497V54.5329ZM362.762 59.6333C363.254 59.6333 363.736 59.3549 363.95 58.9702V57.5702C363.736 57.1772 363.254 56.8989 362.762 56.8989C361.993 56.8989 361.404 57.4802 361.404 58.266C361.404 59.0438 361.993 59.6333 362.762 59.6333ZM372.826 58.831C372.515 59.7315 371.515 60.3455 370.361 60.3455C368.707 60.3455 367.488 59.0602 367.488 57.3819C367.488 55.7282 368.707 54.451 370.361 54.451C371.466 54.451 372.432 55.0159 372.76 55.8346L372.056 56.1784C371.785 55.5972 371.131 55.2124 370.361 55.2124C369.142 55.2124 368.298 56.1457 368.298 57.3819C368.298 58.6427 369.142 59.5841 370.361 59.5841C371.172 59.5841 371.86 59.1584 372.113 58.5035L372.826 58.831ZM375.433 56.1866C376.588 56.1866 377.496 57.0953 377.496 58.2743C377.496 59.445 376.588 60.3455 375.433 60.3455C374.271 60.3455 373.371 59.445 373.371 58.2743C373.371 57.0953 374.271 56.1866 375.433 56.1866ZM375.433 56.9071C374.68 56.9071 374.107 57.4965 374.107 58.2743C374.107 59.0356 374.68 59.6251 375.433 59.6251C376.179 59.6251 376.76 59.0356 376.76 58.2743C376.76 57.4965 376.179 56.9071 375.433 56.9071ZM379.094 54.5329V60.2636H378.332V54.5329H379.094ZM381.902 56.1866C383.056 56.1866 383.965 57.0953 383.965 58.2743C383.965 59.445 383.056 60.3455 381.902 60.3455C380.739 60.3455 379.839 59.445 379.839 58.2743C379.839 57.0953 380.739 56.1866 381.902 56.1866ZM381.902 56.9071C381.148 56.9071 380.576 57.4965 380.576 58.2743C380.576 59.0356 381.148 59.6251 381.902 59.6251C382.647 59.6251 383.228 59.0356 383.228 58.2743C383.228 57.4965 382.647 56.9071 381.902 56.9071ZM386.61 56.1866C386.79 56.1866 386.937 56.2193 387.052 56.2521L387.011 56.9644C386.88 56.9152 386.708 56.8907 386.561 56.8907C386.233 56.8907 385.799 57.1527 385.561 57.6029V60.2636H384.801V56.2685H385.561V56.8497C385.783 56.4486 386.225 56.1866 386.61 56.1866Z" fill="#9D9D9D"/>
</g>
</g>
<rect x="299.01" y="0.439941" width="68.94" height="81.8422" fill="url(#paint6_linear_7955_73576)"/>
</g>
</g>
<defs>
<filter id="filter0_ddddddd_7955_73576" x="0.420001" y="0.439941" width="390.33" height="135.642" filterUnits="userSpaceOnUse" color-interpolation-filters="sRGB">
<feFlood flood-opacity="0" result="BackgroundImageFix"/>
<feColorMatrix in="SourceAlpha" type="matrix" values="0 0 0 0 0 0 0 0 0 0 0 0 0 0 0 0 0 0 127 0" result="hardAlpha"/>
<feOffset dy="31"/>
<feGaussianBlur stdDeviation="11.4"/>
<feComposite in2="hardAlpha" operator="out"/>
<feColorMatrix type="matrix" values="0 0 0 0 0 0 0 0 0 0 0 0 0 0 0 0 0 0 0.055 0"/>
<feBlend mode="normal" in2="BackgroundImageFix" result="effect1_dropShadow_7955_73576"/>
<feColorMatrix in="SourceAlpha" type="matrix" values="0 0 0 0 0 0 0 0 0 0 0 0 0 0 0 0 0 0 127 0" result="hardAlpha"/>
<feOffset dy="15"/>
<feGaussianBlur stdDeviation="5.2"/>
<feComposite in2="hardAlpha" operator="out"/>
<feColorMatrix type="matrix" values="0 0 0 0 0 0 0 0 0 0 0 0 0 0 0 0 0 0 0.05 0"/>
<feBlend mode="normal" in2="effect1_dropShadow_7955_73576" result="effect2_dropShadow_7955_73576"/>
<feColorMatrix in="SourceAlpha" type="matrix" values="0 0 0 0 0 0 0 0 0 0 0 0 0 0 0 0 0 0 127 0" result="hardAlpha"/>
<feOffset dy="9"/>
<feGaussianBlur stdDeviation="2.65"/>
<feComposite in2="hardAlpha" operator="out"/>
<feColorMatrix type="matrix" values="0 0 0 0 0 0 0 0 0 0 0 0 0 0 0 0 0 0 0.047 0"/>
<feBlend mode="normal" in2="effect2_dropShadow_7955_73576" result="effect3_dropShadow_7955_73576"/>
<feColorMatrix in="SourceAlpha" type="matrix" values="0 0 0 0 0 0 0 0 0 0 0 0 0 0 0 0 0 0 127 0" result="hardAlpha"/>
<feOffset dy="5"/>
<feGaussianBlur stdDeviation="1.45"/>
<feComposite in2="hardAlpha" operator="out"/>
<feColorMatrix type="matrix" values="0 0 0 0 0 0 0 0 0 0 0 0 0 0 0 0 0 0 0.047 0"/>
<feBlend mode="normal" in2="effect3_dropShadow_7955_73576" result="effect4_dropShadow_7955_73576"/>
<feColorMatrix in="SourceAlpha" type="matrix" values="0 0 0 0 0 0 0 0 0 0 0 0 0 0 0 0 0 0 127 0" result="hardAlpha"/>
<feOffset dy="3"/>
<feGaussianBlur stdDeviation="0.8"/>
<feComposite in2="hardAlpha" operator="out"/>
<feColorMatrix type="matrix" values="0 0 0 0 0 0 0 0 0 0 0 0 0 0 0 0 0 0 0.043 0"/>
<feBlend mode="normal" in2="effect4_dropShadow_7955_73576" result="effect5_dropShadow_7955_73576"/>
<feColorMatrix in="SourceAlpha" type="matrix" values="0 0 0 0 0 0 0 0 0 0 0 0 0 0 0 0 0 0 127 0" result="hardAlpha"/>
<feOffset dy="2"/>
<feGaussianBlur stdDeviation="0.4"/>
<feComposite in2="hardAlpha" operator="out"/>
<feColorMatrix type="matrix" values="0 0 0 0 0 0 0 0 0 0 0 0 0 0 0 0 0 0 0.04 0"/>
<feBlend mode="normal" in2="effect5_dropShadow_7955_73576" result="effect6_dropShadow_7955_73576"/>
<feColorMatrix in="SourceAlpha" type="matrix" values="0 0 0 0 0 0 0 0 0 0 0 0 0 0 0 0 0 0 127 0" result="hardAlpha"/>
<feOffset dy="1"/>
<feGaussianBlur stdDeviation="0.2"/>
<feComposite in2="hardAlpha" operator="out"/>
<feColorMatrix type="matrix" values="0 0 0 0 0 0 0 0 0 0 0 0 0 0 0 0 0 0 0.03 0"/>
<feBlend mode="normal" in2="effect6_dropShadow_7955_73576" result="effect7_dropShadow_7955_73576"/>
<feBlend mode="normal" in="SourceGraphic" in2="effect7_dropShadow_7955_73576" result="shape"/>
</filter>
<linearGradient id="paint0_linear_7955_73576" x1="110.271" y1="22.3185" x2="110.271" y2="41.8195" gradientUnits="userSpaceOnUse">
<stop stop-color="#F49CC0"/>
<stop offset="1" stop-color="#F68D69"/>
</linearGradient>
<linearGradient id="paint1_linear_7955_73576" x1="161.8" y1="22.0931" x2="155.719" y2="40.9275" gradientUnits="userSpaceOnUse">
<stop stop-color="#F4EE70"/>
<stop offset="1" stop-color="#F5B3B2"/>
</linearGradient>
<linearGradient id="paint2_linear_7955_73576" x1="225.2" y1="32.3671" x2="203.58" y2="32.3671" gradientUnits="userSpaceOnUse">
<stop stop-color="#030304"/>
<stop offset="1" stop-color="white"/>
</linearGradient>
<linearGradient id="paint3_linear_7955_73576" x1="256.225" y1="39.0191" x2="271.214" y2="39.0191" gradientUnits="userSpaceOnUse">
<stop stop-color="#AAD695"/>
<stop offset="1" stop-color="#56B5E6"/>
</linearGradient>
<linearGradient id="paint4_linear_7955_73576" x1="305.861" y1="32.0044" x2="312.751" y2="35.763" gradientUnits="userSpaceOnUse">
<stop stop-color="#55B5E6"/>
<stop offset="1" stop-color="#6D7CBC"/>
</linearGradient>
<linearGradient id="paint5_linear_7955_73576" x1="367.578" y1="22.2617" x2="367.578" y2="41.3352" gradientUnits="userSpaceOnUse">
<stop stop-color="#F49CC2"/>
<stop offset="1" stop-color="#A78BC1"/>
</linearGradient>
<linearGradient id="paint6_linear_7955_73576" x1="299.01" y1="41.3611" x2="367.95" y2="41.3611" gradientUnits="userSpaceOnUse">
<stop offset="0.33" stop-color="white" stop-opacity="0"/>
<stop offset="1" stop-color="white"/>
</linearGradient>
<clipPath id="clip0_7955_73576">
<rect x="23.22" y="0.439941" width="344.73" height="81.8422" rx="12.96" fill="white"/>
</clipPath>
<clipPath id="clip1_7955_73576">
<rect width="482.63" height="62.4022" fill="white" transform="translate(23.22 6.91992)"/>
</clipPath>
<clipPath id="clip2_7955_73576">
<rect width="482.63" height="62.4022" fill="white" transform="translate(23.22 6.91992)"/>
</clipPath>
</defs>
</svg>
