<svg width="40" height="39" viewBox="0 0 40 39" fill="none" xmlns="http://www.w3.org/2000/svg">
<path d="M19.7781 0.0925042C19.8686 -0.0308347 20.0519 -0.0308347 20.1425 0.0925042L24.8305 6.46427C24.8848 6.53782 24.9776 6.57177 25.0669 6.55027L32.7875 4.65719C32.9369 4.62098 33.0783 4.73979 33.0682 4.89255L32.5295 12.7568C32.5228 12.8485 32.5737 12.9356 32.6563 12.9752L39.793 16.4457C39.9321 16.5124 39.9638 16.6957 39.8563 16.8066L34.3479 22.487C34.2834 22.5526 34.2665 22.6522 34.3038 22.7371L37.5219 29.9428C37.5842 30.0831 37.4914 30.2438 37.3386 30.2596L29.4325 31.0992C29.3408 31.1094 29.265 31.1739 29.239 31.2611L27.0325 38.8368C26.9895 38.9839 26.8163 39.0461 26.6896 38.9624L20.0859 34.564C20.0101 34.5131 19.9105 34.5131 19.8347 34.564L13.231 38.9624C13.1042 39.0461 12.9311 38.9839 12.8881 38.8368L10.6816 31.2611C10.6555 31.1739 10.5797 31.1094 10.4881 31.0992L2.58192 30.2596C2.42916 30.2438 2.33639 30.0831 2.39863 29.9428L5.61675 22.7371C5.65409 22.6522 5.63713 22.5526 5.57263 22.487L0.0642242 16.8066C-0.043273 16.6957 -0.011583 16.5124 0.127598 16.4457L7.26429 12.9752C7.34689 12.9356 7.3978 12.8485 7.39101 12.7568L6.85239 4.89255C6.84221 4.73979 6.98365 4.62098 7.13301 4.65719L14.8536 6.55027C14.943 6.57177 15.0358 6.53782 15.0901 6.46427L19.7781 0.0925042Z" fill="#00A888"/>
<path d="M10.3417 20.1749L15 24.8332L16.175 23.6499L11.525 18.9999M28.5333 13.6499L19.7167 22.4749L16.25 18.9999L15.0583 20.1749L19.7167 24.8332L29.7167 14.8332M25 14.8332L23.825 13.6499L18.5333 18.9416L19.7167 20.1166L25 14.8332Z" fill="white"/>
</svg>
