<svg width="69" height="68" viewBox="0 0 69 68" fill="none" xmlns="http://www.w3.org/2000/svg">
<path d="M34.0947 0.159342C34.2507 -0.0532769 34.5668 -0.0532769 34.7228 0.159342L42.8043 11.1434C42.8979 11.2702 43.0578 11.3287 43.2119 11.2916L56.5212 8.02822C56.7787 7.9658 57.0225 8.17061 57.0049 8.43395L56.0764 21.9909C56.0647 22.1489 56.1525 22.2991 56.2949 22.3673L68.5975 28.3499C68.8375 28.465 68.8921 28.781 68.7068 28.9722L59.2111 38.7644C59.0999 38.8775 59.0706 39.0492 59.135 39.1955L64.6826 51.6171C64.7899 51.859 64.63 52.136 64.3666 52.1633L50.7375 53.6107C50.5795 53.6282 50.4488 53.7394 50.404 53.8896L46.6002 66.9491C46.5261 67.2027 46.2276 67.31 46.0092 67.1656L34.6253 59.5835C34.4946 59.4957 34.3229 59.4957 34.1922 59.5835L22.8083 67.1656C22.5899 67.31 22.2914 67.2027 22.2173 66.9491L18.4135 53.8896C18.3687 53.7394 18.238 53.6282 18.08 53.6107L4.45088 52.1633C4.18754 52.136 4.02761 51.859 4.1349 51.6171L9.6825 39.1955C9.74687 39.0492 9.71763 38.8775 9.60644 38.7644L0.110714 28.9722C-0.0745967 28.781 -0.0199675 28.465 0.219961 28.3499L12.5226 22.3673C12.665 22.2991 12.7528 22.1489 12.7411 21.9909L11.8126 8.43395C11.795 8.17061 12.0388 7.9658 12.2963 8.02822L25.6056 11.2916C25.7597 11.3287 25.9196 11.2702 26.0132 11.1434L34.0947 0.159342Z" fill="#FFBAC4"/>
</svg>
