<svg width="68" height="85" viewBox="0 0 68 85" fill="none" xmlns="http://www.w3.org/2000/svg">
<path d="M42.8679 0.200376C43.0641 -0.0669547 43.4615 -0.0669547 43.6577 0.200376L53.8187 14.0108C53.9364 14.1702 54.1375 14.2438 54.3312 14.1972L71.0652 10.0941C71.3889 10.0156 71.6955 10.2731 71.6734 10.6042L70.506 27.6496C70.4913 27.8482 70.6016 28.0371 70.7807 28.1229L86.2491 35.645C86.5507 35.7897 86.6194 36.187 86.3864 36.4274L74.4472 48.7393C74.3074 48.8815 74.2707 49.0974 74.3516 49.2813L81.3267 64.8993C81.4616 65.2034 81.2605 65.5517 80.9294 65.586L63.7933 67.4058C63.5946 67.4279 63.4303 67.5677 63.3739 67.7565L58.5914 84.1765C58.4982 84.4953 58.1229 84.6302 57.8483 84.4487L43.5351 74.9156C43.3707 74.8052 43.1549 74.8052 42.9905 74.9156L28.6774 84.4487C28.4027 84.6302 28.0274 84.4953 27.9342 84.1765L23.1517 67.7565C23.0953 67.5677 22.931 67.4279 22.7323 67.4058L5.59618 65.586C5.26508 65.5517 5.064 65.2034 5.19889 64.8993L12.174 49.2813C12.2549 49.0974 12.2182 48.8815 12.0784 48.7393L0.139202 36.4274C-0.093792 36.187 -0.0251056 35.7897 0.276561 35.645L15.745 28.1229C15.924 28.0371 16.0343 27.8482 16.0196 27.6496L14.8522 10.6042C14.8301 10.2731 15.1367 10.0156 15.4604 10.0941L32.1944 14.1972C32.3881 14.2438 32.5892 14.1702 32.7069 14.0108L42.8679 0.200376Z" fill="#FFBAC4"/>
</svg>
