<svg width="198" height="239" viewBox="0 0 198 239" fill="none" xmlns="http://www.w3.org/2000/svg">
<g clip-path="url(#clip0_9504_2318)">
<rect y="29.9386" width="160.586" height="212.044" rx="6.21049" transform="rotate(-10.7447 0 29.9386)" fill="black"/>
<rect x="37.9015" y="191.601" width="89" height="38" rx="7.09771" transform="rotate(-10.7447 37.9015 191.601)" fill="#2C2B36"/>
<path d="M50.1648 203.654C49.7464 203.734 49.3655 203.686 49.0221 203.51C48.6787 203.334 48.4178 203.062 48.2393 202.692L48.851 202.418C48.9469 202.638 49.1044 202.81 49.3236 202.934C49.5451 203.054 49.7852 203.09 50.0438 203.041C50.2065 203.01 50.3632 202.939 50.5139 202.83C50.6676 202.719 50.7752 202.565 50.8369 202.366C50.8772 202.229 50.8878 202.087 50.869 201.94C50.8525 201.79 50.8247 201.612 50.7855 201.405L49.961 197.06L50.606 196.938L51.4306 201.283C51.4636 201.457 51.4922 201.616 51.5163 201.759C51.5399 201.899 51.5496 202.037 51.5453 202.173C51.5434 202.306 51.5171 202.445 51.4664 202.59C51.3655 202.883 51.1996 203.119 50.9687 203.299C50.7407 203.477 50.4727 203.596 50.1648 203.654ZM55.1024 202.722C54.6346 202.811 54.215 202.78 53.8435 202.631C53.472 202.482 53.1621 202.237 52.9137 201.896C52.6653 201.554 52.4951 201.141 52.4031 200.656C52.3093 200.162 52.3172 199.712 52.4268 199.306C52.5364 198.9 52.7372 198.562 53.0293 198.293C53.3237 198.02 53.7005 197.841 54.1596 197.753C54.6303 197.664 55.0513 197.694 55.4228 197.843C55.7967 197.989 56.1063 198.233 56.3518 198.575C56.5996 198.913 56.7695 199.325 56.8616 199.81C56.9553 200.304 56.9491 200.755 56.843 201.163C56.7363 201.569 56.5358 201.908 56.2414 202.181C55.9469 202.453 55.5673 202.634 55.1024 202.722ZM54.9858 202.107C55.5088 202.008 55.8653 201.761 56.0554 201.367C56.2449 200.97 56.287 200.494 56.1817 199.939C56.0736 199.369 55.8583 198.941 55.5358 198.653C55.2161 198.364 54.7963 198.269 54.2762 198.368C53.9246 198.435 53.6492 198.57 53.45 198.773C53.2531 198.973 53.1248 199.225 53.065 199.528C53.0075 199.828 53.0135 200.161 53.0829 200.527C53.1905 201.093 53.4075 201.523 53.7341 201.817C54.0601 202.107 54.4773 202.204 54.9858 202.107ZM61.6699 201.34L61.2142 198.939C61.1646 198.677 61.0944 198.442 61.0036 198.234C60.9123 198.022 60.7961 197.846 60.6548 197.704C60.5158 197.559 60.3507 197.458 60.1592 197.401C59.9707 197.343 59.753 197.338 59.506 197.385C59.2794 197.428 59.0863 197.505 58.9269 197.616C58.7703 197.727 58.6466 197.868 58.5556 198.039C58.4669 198.206 58.4119 198.4 58.3906 198.621C58.3693 198.842 58.384 199.086 58.4347 199.353L57.9624 199.339C57.8709 198.857 57.8783 198.435 57.9845 198.075C58.0907 197.715 58.276 197.422 58.5404 197.198C58.8048 196.973 59.1287 196.824 59.5122 196.751C59.7941 196.698 60.0479 196.695 60.2736 196.742C60.5023 196.789 60.7033 196.873 60.8767 196.994C61.053 197.114 61.2044 197.261 61.3308 197.436C61.4567 197.607 61.5604 197.797 61.6419 198.004C61.7228 198.209 61.7834 198.417 61.8237 198.629L62.3149 201.218L61.6699 201.34ZM58.2661 201.986L57.0751 195.71L57.6548 195.6L58.3272 199.143L58.3925 199.131L58.9111 201.864L58.2661 201.986ZM66.8454 200.358L66.3897 197.957C66.34 197.695 66.2699 197.46 66.1791 197.252C66.0878 197.04 65.9715 196.864 65.8302 196.722C65.6913 196.577 65.5261 196.475 65.3347 196.418C65.1462 196.361 64.9284 196.356 64.6815 196.402C64.4548 196.445 64.2618 196.523 64.1024 196.634C63.9458 196.745 63.822 196.886 63.731 197.057C63.6424 197.224 63.5874 197.418 63.5661 197.639C63.5448 197.86 63.5595 198.104 63.6102 198.371L63.1379 198.357C63.0464 197.875 63.0537 197.453 63.1599 197.093C63.2662 196.733 63.4515 196.44 63.7158 196.215C63.9802 195.991 64.3042 195.842 64.6877 195.769C64.9696 195.716 65.2233 195.713 65.4491 195.76C65.6777 195.807 65.8787 195.891 66.0521 196.011C66.2284 196.132 66.3798 196.279 66.5063 196.454C66.6322 196.625 66.7359 196.815 66.8174 197.022C66.8983 197.227 66.9589 197.435 66.9991 197.647L67.4904 200.236L66.8454 200.358ZM63.4415 201.004L62.5483 196.297L63.128 196.187L63.348 197.346L63.4134 197.334L64.0866 200.882L63.4415 201.004ZM70.3664 199.69L69.1755 193.414L71.08 193.053C71.1469 193.04 71.2604 193.02 71.4208 192.992C71.5841 192.964 71.7417 192.947 71.8938 192.939C72.3829 192.915 72.8146 193.017 73.1888 193.244C73.563 193.471 73.8722 193.792 74.1164 194.206C74.3605 194.62 74.5333 195.094 74.6348 195.629C74.7362 196.164 74.7492 196.668 74.6738 197.143C74.5983 197.618 74.4281 198.03 74.1631 198.378C73.898 198.726 73.5336 198.979 73.0698 199.136C72.9278 199.181 72.7746 199.222 72.6101 199.26C72.445 199.294 72.332 199.317 72.271 199.329L70.3664 199.69ZM70.9122 198.95L72.1543 198.714C72.2735 198.691 72.4008 198.664 72.5362 198.633C72.674 198.597 72.7904 198.56 72.8853 198.521C73.2393 198.388 73.5061 198.184 73.6857 197.909C73.8682 197.633 73.9787 197.311 74.0171 196.943C74.055 196.571 74.0343 196.176 73.9549 195.758C73.8749 195.337 73.7493 194.96 73.578 194.628C73.4067 194.297 73.1859 194.038 72.9157 193.851C72.6455 193.665 72.3228 193.574 71.9475 193.579C71.8448 193.577 71.7218 193.587 71.5783 193.608C71.4372 193.626 71.31 193.646 71.1966 193.667L69.9545 193.903L70.9122 198.95ZM78.2132 198.336C77.7454 198.425 77.3258 198.395 76.9543 198.246C76.5828 198.096 76.2729 197.851 76.0246 197.51C75.7762 197.169 75.606 196.756 75.5139 196.27C75.4202 195.776 75.4281 195.326 75.5377 194.92C75.6472 194.514 75.8481 194.177 76.1401 193.907C76.4346 193.635 76.8113 193.455 77.2704 193.368C77.7411 193.279 78.1622 193.309 78.5337 193.458C78.9075 193.604 79.2172 193.847 79.4626 194.189C79.7104 194.527 79.8804 194.939 79.9724 195.424C80.0662 195.918 80.06 196.369 79.9539 196.778C79.8472 197.183 79.6467 197.523 79.3522 197.795C79.0578 198.068 78.6781 198.248 78.2132 198.336ZM78.0966 197.722C78.6196 197.623 78.9762 197.376 79.1662 196.982C79.3557 196.584 79.3979 196.108 79.2925 195.553C79.1845 194.984 78.9692 194.555 78.6466 194.267C78.327 193.979 77.9071 193.884 77.387 193.982C77.0355 194.049 76.7601 194.184 76.5609 194.388C76.364 194.587 76.2357 194.839 76.1758 195.142C76.1183 195.442 76.1243 195.775 76.1938 196.141C76.3013 196.708 76.5184 197.138 76.8449 197.431C77.1709 197.721 77.5882 197.818 78.0966 197.722ZM83.3978 197.353C82.9388 197.44 82.5214 197.413 82.1458 197.274C81.773 197.134 81.4587 196.897 81.2027 196.564C80.9467 196.23 80.7716 195.815 80.6773 195.318C80.5797 194.803 80.5869 194.341 80.6988 193.932C80.8107 193.522 81.013 193.184 81.3057 192.918C81.6012 192.651 81.9756 192.475 82.4289 192.389C82.8937 192.301 83.3107 192.333 83.6799 192.486C84.0484 192.636 84.3548 192.894 84.5988 193.26C84.8429 193.626 85.01 194.086 85.1002 194.641L84.4465 194.765L84.4035 194.538C84.2761 193.93 84.0565 193.495 83.7447 193.232C83.4359 192.969 83.0403 192.883 82.5579 192.974C82.0524 193.07 81.6956 193.308 81.4877 193.687C81.2827 194.066 81.2378 194.56 81.3531 195.167C81.4656 195.76 81.6866 196.195 82.0162 196.472C82.3482 196.746 82.7611 196.837 83.2551 196.743C83.5921 196.679 83.871 196.546 84.0916 196.345C84.3146 196.14 84.4709 195.877 84.5605 195.556L85.2014 195.674C85.0932 196.119 84.879 196.489 84.5588 196.785C84.241 197.077 83.854 197.266 83.3978 197.353ZM81.1604 195.389L81.0586 194.852L84.6542 194.17L84.7559 194.706L81.1604 195.389ZM90.7878 195.815C90.5339 195.92 90.2765 195.992 90.0157 196.029C89.7579 196.066 89.5178 196.054 89.2957 195.994C89.0765 195.933 88.8947 195.808 88.7504 195.619C88.6331 195.461 88.5532 195.294 88.5109 195.118C88.4709 194.939 88.4291 194.735 88.3856 194.505L87.5676 190.195L88.2039 190.074L89.0169 194.358C89.0544 194.556 89.0873 194.721 89.1155 194.854C89.1462 194.984 89.1987 195.094 89.2732 195.186C89.4148 195.36 89.6024 195.445 89.8362 195.44C90.0729 195.434 90.3546 195.372 90.6811 195.253L90.7878 195.815ZM86.9132 192.242L86.809 191.693L89.8946 191.108L89.9988 191.657L86.9132 192.242ZM95.1147 194.994L94.659 192.592C94.6093 192.331 94.5392 192.096 94.4484 191.887C94.3571 191.676 94.2408 191.499 94.0995 191.357C93.9606 191.212 93.7954 191.111 93.604 191.054C93.4155 190.997 93.1977 190.991 92.9508 191.038C92.7241 191.081 92.5311 191.158 92.3717 191.27C92.2151 191.381 92.0913 191.522 92.0003 191.693C91.9117 191.86 91.8567 192.054 91.8354 192.275C91.8141 192.495 91.8288 192.74 91.8795 193.007L91.4072 192.993C91.3157 192.51 91.323 192.089 91.4292 191.729C91.5355 191.368 91.7208 191.076 91.9851 190.851C92.2495 190.626 92.5735 190.478 92.957 190.405C93.2389 190.351 93.4926 190.348 93.7184 190.396C93.947 190.443 94.148 190.526 94.3214 190.647C94.4977 190.767 94.6491 190.914 94.7756 191.089C94.9015 191.261 95.0052 191.45 95.0867 191.658C95.1676 191.862 95.2282 192.07 95.2684 192.282L95.7597 194.871L95.1147 194.994ZM91.7108 195.64L90.5199 189.364L91.0996 189.254L91.7719 192.797L91.8373 192.785L92.3559 195.517L91.7108 195.64ZM98.9072 194.409C98.4481 194.497 98.0308 194.47 97.6551 194.331C97.2824 194.191 96.9681 193.954 96.7121 193.62C96.4561 193.287 96.281 192.871 96.1867 192.375C96.0891 191.86 96.0963 191.398 96.2082 190.989C96.3201 190.579 96.5224 190.241 96.815 189.975C97.1106 189.708 97.485 189.532 97.9382 189.446C98.4031 189.358 98.8201 189.39 99.1893 189.543C99.5578 189.693 99.8641 189.95 100.108 190.317C100.352 190.683 100.519 191.143 100.61 191.698L99.9559 191.822L99.9129 191.595C99.7855 190.987 99.5659 190.552 99.2541 190.289C98.9452 190.025 98.5496 189.94 98.0673 190.031C97.5618 190.127 97.205 190.365 96.9971 190.744C96.7921 191.123 96.7472 191.617 96.8625 192.224C96.9749 192.817 97.196 193.252 97.5256 193.529C97.8576 193.803 98.2705 193.894 98.7644 193.8C99.1015 193.736 99.3803 193.603 99.601 193.402C99.824 193.197 99.9803 192.934 100.07 192.613L100.711 192.731C100.603 193.176 100.388 193.546 100.068 193.841C99.7504 194.134 99.3634 194.323 98.9072 194.409ZM96.6697 192.445L96.568 191.909L100.164 191.227L100.265 191.763L96.6697 192.445ZM105.585 193.142C105.147 193.225 104.751 193.188 104.399 193.029C104.046 192.867 103.751 192.614 103.515 192.271C103.278 191.927 103.115 191.52 103.026 191.05C102.937 190.582 102.938 190.145 103.03 189.74C103.124 189.333 103.305 188.992 103.572 188.716C103.838 188.439 104.186 188.26 104.617 188.179C105.058 188.095 105.45 188.132 105.793 188.289C106.136 188.447 106.42 188.699 106.646 189.044C106.873 189.387 107.032 189.796 107.122 190.272C107.211 190.74 107.214 191.177 107.132 191.584C107.049 191.988 106.879 192.329 106.622 192.607C106.364 192.882 106.018 193.06 105.585 193.142ZM105.538 192.533C105.872 192.469 106.132 192.336 106.319 192.131C106.506 191.927 106.627 191.673 106.68 191.368C106.733 191.06 106.725 190.724 106.656 190.361C106.586 189.992 106.471 189.677 106.31 189.415C106.148 189.151 105.943 188.959 105.695 188.841C105.45 188.722 105.163 188.694 104.834 188.756C104.497 188.82 104.234 188.956 104.045 189.163C103.855 189.371 103.734 189.627 103.68 189.932C103.63 190.237 103.638 190.566 103.706 190.921C103.773 191.278 103.888 191.59 104.05 191.858C104.215 192.121 104.422 192.315 104.671 192.44C104.92 192.564 105.209 192.595 105.538 192.533ZM107.103 192.719L106.431 189.175L106.361 189.189L105.843 186.456L106.488 186.334L107.679 192.609L107.103 192.719ZM110.918 192.13C110.459 192.217 110.042 192.191 109.666 192.052C109.293 191.912 108.979 191.675 108.723 191.341C108.467 191.008 108.292 190.592 108.198 190.095C108.1 189.581 108.107 189.119 108.219 188.71C108.331 188.3 108.533 187.962 108.826 187.696C109.121 187.429 109.496 187.253 109.949 187.167C110.414 187.079 110.831 187.111 111.2 187.264C111.569 187.413 111.875 187.671 112.119 188.037C112.363 188.403 112.53 188.864 112.62 189.419L111.967 189.543L111.924 189.316C111.796 188.708 111.577 188.273 111.265 188.01C110.956 187.746 110.56 187.66 110.078 187.752C109.573 187.848 109.216 188.086 109.008 188.465C108.803 188.844 108.758 189.337 108.873 189.945C108.986 190.537 109.207 190.972 109.536 191.25C109.868 191.524 110.281 191.614 110.775 191.521C111.112 191.457 111.391 191.324 111.612 191.123C111.835 190.918 111.991 190.655 112.081 190.334L112.722 190.452C112.613 190.896 112.399 191.267 112.079 191.562C111.761 191.854 111.374 192.044 110.918 192.13ZM108.681 190.166L108.579 189.63L112.174 188.948L112.276 189.484L108.681 190.166ZM115.781 191.203C115.229 191.308 114.751 191.275 114.349 191.104C113.949 190.934 113.668 190.644 113.506 190.235L114.14 190.002C114.26 190.256 114.459 190.439 114.736 190.552C115.016 190.662 115.339 190.682 115.705 190.612C116.062 190.545 116.33 190.417 116.508 190.23C116.686 190.039 116.75 189.815 116.701 189.556C116.673 189.411 116.618 189.3 116.534 189.222C116.452 189.142 116.304 189.081 116.088 189.041C115.873 189 115.556 188.964 115.138 188.932C114.688 188.897 114.332 188.844 114.069 188.774C113.806 188.703 113.609 188.602 113.479 188.47C113.348 188.335 113.261 188.158 113.219 187.937C113.169 187.67 113.2 187.421 113.313 187.192C113.425 186.96 113.605 186.764 113.851 186.602C114.097 186.438 114.397 186.323 114.752 186.255C115.106 186.188 115.434 186.186 115.735 186.249C116.038 186.309 116.295 186.426 116.506 186.6C116.716 186.774 116.863 186.994 116.947 187.261L116.316 187.503C116.22 187.235 116.04 187.043 115.778 186.928C115.517 186.809 115.209 186.78 114.854 186.841C114.518 186.896 114.258 187.011 114.075 187.188C113.891 187.361 113.821 187.559 113.863 187.783C113.887 187.908 113.945 188.008 114.038 188.084C114.13 188.157 114.282 188.214 114.494 188.255C114.71 188.295 115.011 188.327 115.397 188.35C115.851 188.378 116.213 188.43 116.483 188.505C116.753 188.58 116.957 188.691 117.093 188.836C117.229 188.982 117.32 189.177 117.366 189.421C117.45 189.866 117.351 190.247 117.069 190.566C116.788 190.881 116.359 191.093 115.781 191.203ZM117.604 184.924L117.468 184.205L118.109 184.083L118.245 184.802L117.604 184.924ZM118.667 190.524L117.774 185.817L118.415 185.696L119.308 190.403L118.667 190.524Z" fill="#EFF0FA"/>
<path d="M55.545 214.158L54.9309 214.274C54.861 214.105 54.768 213.962 54.6519 213.845C54.5373 213.728 54.4071 213.637 54.2611 213.57C54.1164 213.502 53.9621 213.459 53.7982 213.443C53.6342 213.426 53.468 213.434 53.2997 213.465C52.9926 213.524 52.7291 213.654 52.5093 213.857C52.2911 214.059 52.1372 214.325 52.0476 214.655C51.9597 214.985 51.9574 215.369 52.0407 215.808C52.124 216.247 52.267 216.604 52.4696 216.879C52.6739 217.153 52.9145 217.344 53.1916 217.452C53.4703 217.56 53.7632 217.585 54.0703 217.527C54.2387 217.495 54.3961 217.441 54.5425 217.365C54.6889 217.289 54.8171 217.194 54.9269 217.079C55.0382 216.962 55.1257 216.829 55.1894 216.678C55.2545 216.525 55.2887 216.358 55.2918 216.176L55.9059 216.06C55.9089 216.328 55.8687 216.576 55.7854 216.804C55.702 217.031 55.5832 217.234 55.4289 217.412C55.2742 217.589 55.0908 217.736 54.8788 217.853C54.6684 217.97 54.4352 218.053 54.1793 218.101C53.7468 218.183 53.3421 218.151 52.9652 218.003C52.5883 217.856 52.2664 217.606 51.9993 217.253C51.7322 216.9 51.5479 216.456 51.4464 215.921C51.3449 215.386 51.3538 214.905 51.473 214.479C51.5922 214.053 51.8001 213.702 52.0968 213.427C52.3935 213.152 52.7581 212.973 53.1906 212.891C53.4465 212.842 53.6938 212.834 53.9324 212.866C54.1727 212.897 54.3972 212.967 54.6061 213.076C54.8146 213.184 54.9994 213.328 55.1604 213.51C55.3211 213.69 55.4493 213.906 55.545 214.158ZM59.0287 217.191C58.6853 217.256 58.3685 217.232 58.0783 217.118C57.7898 217.003 57.545 216.813 57.3439 216.546C57.1445 216.28 57.0076 215.95 56.933 215.557C56.8578 215.161 56.864 214.801 56.9516 214.479C57.0408 214.155 57.1986 213.888 57.4251 213.675C57.6533 213.463 57.9391 213.324 58.2825 213.259C58.6259 213.194 58.9418 213.218 59.2304 213.333C59.5206 213.447 59.7655 213.638 59.9652 213.907C60.1666 214.175 60.3048 214.507 60.38 214.903C60.4546 215.296 60.4471 215.653 60.3576 215.974C60.2697 216.295 60.1117 216.562 59.8835 216.775C59.657 216.987 59.3721 217.126 59.0287 217.191ZM58.9291 216.666C59.1899 216.617 59.3918 216.509 59.5348 216.343C59.6778 216.178 59.7691 215.978 59.8087 215.745C59.8482 215.512 59.8439 215.268 59.7956 215.014C59.7474 214.76 59.662 214.53 59.5394 214.326C59.4169 214.122 59.2585 213.968 59.0645 213.865C58.8704 213.761 58.6429 213.734 58.3821 213.784C58.1213 213.833 57.9195 213.942 57.7768 214.109C57.6341 214.276 57.5431 214.477 57.5039 214.712C57.4647 214.947 57.4692 215.192 57.5174 215.446C57.5657 215.7 57.6509 215.929 57.7731 216.131C57.8954 216.334 58.0534 216.486 58.2472 216.588C58.4409 216.69 58.6682 216.716 58.9291 216.666ZM64.367 216.096L63.4047 211.025L64.0188 210.908L64.4473 213.166L67.1515 212.653L66.7229 210.395L67.337 210.278L68.2994 215.35L67.6853 215.466L67.2548 213.198L64.5507 213.711L64.9812 215.98L64.367 216.096ZM71.3586 214.851C71.0152 214.917 70.6984 214.892 70.4082 214.778C70.1196 214.663 69.8748 214.473 69.6738 214.207C69.4744 213.94 69.3374 213.61 69.2629 213.217C69.1877 212.821 69.1939 212.462 69.2814 212.139C69.3706 211.816 69.5285 211.548 69.755 211.336C69.9832 211.123 70.269 210.984 70.6123 210.919C70.9557 210.854 71.2717 210.879 71.5602 210.993C71.8504 211.107 72.0954 211.299 72.2951 211.567C72.4964 211.835 72.6347 212.167 72.7099 212.563C72.7845 212.956 72.777 213.313 72.6875 213.635C72.5996 213.956 72.4416 214.223 72.2134 214.435C71.9869 214.648 71.7019 214.786 71.3586 214.851ZM71.2589 214.326C71.5198 214.277 71.7217 214.169 71.8647 214.004C72.0077 213.838 72.099 213.639 72.1385 213.405C72.1781 213.172 72.1737 212.928 72.1255 212.674C72.0772 212.42 71.9918 212.191 71.8693 211.986C71.7467 211.782 71.5884 211.628 71.3943 211.525C71.2003 211.421 70.9728 211.395 70.712 211.444C70.4511 211.494 70.2494 211.602 70.1067 211.769C69.964 211.937 69.873 212.138 69.8338 212.373C69.7945 212.608 69.7991 212.852 69.8473 213.106C69.8955 213.361 69.9808 213.589 70.103 213.792C70.2253 213.994 70.3833 214.146 70.577 214.248C70.7708 214.35 70.9981 214.376 71.2589 214.326ZM76.4419 210.747L75.9451 210.995C75.8955 210.914 75.8306 210.838 75.7506 210.768C75.6719 210.695 75.5729 210.642 75.4536 210.608C75.3343 210.575 75.1896 210.574 75.0196 210.606C74.7868 210.65 74.603 210.741 74.4682 210.877C74.3347 211.012 74.2835 211.161 74.3145 211.325C74.3421 211.47 74.4167 211.575 74.5383 211.639C74.6599 211.703 74.8383 211.742 75.0735 211.755L75.6644 211.787C76.0201 211.805 76.2975 211.883 76.4965 212.022C76.6952 212.158 76.8198 212.36 76.8702 212.625C76.9116 212.843 76.8858 213.05 76.7929 213.246C76.7017 213.441 76.554 213.609 76.3499 213.75C76.1459 213.892 75.8961 213.99 75.6006 214.046C75.2126 214.12 74.8756 214.097 74.5894 213.977C74.3032 213.857 74.0955 213.641 73.9665 213.33L74.4948 213.086C74.5865 213.281 74.7155 213.416 74.8819 213.49C75.0499 213.564 75.2536 213.579 75.4929 213.533C75.7653 213.482 75.9706 213.383 76.1088 213.237C76.2484 213.089 76.3026 212.933 76.2716 212.77C76.2466 212.638 76.1794 212.536 76.07 212.464C75.9603 212.391 75.8055 212.35 75.6055 212.342L74.9434 212.314C74.5794 212.297 74.2992 212.218 74.1029 212.076C73.9079 211.931 73.7855 211.728 73.7357 211.465C73.695 211.251 73.7192 211.05 73.8084 210.862C73.8992 210.673 74.0406 210.512 74.2324 210.378C74.4258 210.244 74.6563 210.152 74.9237 210.101C75.3001 210.029 75.6113 210.056 75.8572 210.18C76.1048 210.304 76.2997 210.493 76.4419 210.747ZM79.2321 209.335L79.3261 209.83L77.3549 210.204L77.261 209.709L79.2321 209.335ZM77.6625 208.688L78.2469 208.578L78.9349 212.203C78.9662 212.368 79.0136 212.487 79.0772 212.561C79.1421 212.632 79.2151 212.675 79.2964 212.688C79.379 212.7 79.4632 212.698 79.5491 212.681C79.6134 212.669 79.6657 212.656 79.7057 212.641C79.7454 212.625 79.7771 212.613 79.801 212.603L80.0194 213.105C79.9826 213.128 79.9302 213.153 79.862 213.181C79.7941 213.211 79.7057 213.237 79.5968 213.257C79.4317 213.289 79.2632 213.284 79.0912 213.243C78.9209 213.202 78.77 213.118 78.6384 212.993C78.5085 212.867 78.4225 212.693 78.3805 212.472L77.6625 208.688Z" fill="#C5C6D0"/>
<rect x="163.62" y="183.111" width="21.2931" height="21.2931" rx="7.09771" transform="rotate(-10.7447 163.62 183.111)" fill="#2C2B36"/>
<path d="M175.514 188.683C176.166 188.559 176.579 187.95 176.455 187.296C176.333 186.653 175.714 186.235 175.072 186.356C174.436 186.477 174.008 187.094 174.13 187.737C174.251 188.375 174.878 188.803 175.514 188.683ZM176.283 192.736C176.935 192.612 177.349 192.009 177.227 191.366C177.106 190.728 176.487 190.31 175.846 190.431C175.21 190.552 174.782 191.169 174.903 191.807C175.022 192.439 175.647 192.856 176.283 192.736ZM177.057 196.816C177.71 196.692 178.122 196.084 177.999 195.435C177.876 194.787 177.257 194.368 176.616 194.49C175.98 194.611 175.552 195.228 175.675 195.876C175.795 196.508 176.421 196.937 177.057 196.816Z" fill="#EFF0FA"/>
<rect x="66.6593" y="94.3096" width="38.5237" height="38.5237" rx="19.2619" transform="rotate(-10.7447 66.6593 94.3096)" fill="#82AFF3"/>
<rect x="66.6593" y="94.3096" width="38.5237" height="38.5237" rx="19.2619" transform="rotate(-10.7447 66.6593 94.3096)" stroke="#2C2B36" stroke-width="0.51365"/>
<path d="M80.8602 116.819L78.9547 106.777L80.6353 106.458L81.5192 111.116L84.6449 105.697L86.709 105.306L83.3268 111.048L88.9074 115.292L86.7735 115.696L81.6516 111.814L82.5408 116.5L80.8602 116.819ZM91.1452 114.867L92.4056 104.225L94.8672 103.757L99.9385 113.198L98.2092 113.526L93.6265 105.062L94.0031 104.991L92.8746 114.539L91.1452 114.867ZM92.4966 112.356L92.1989 110.787L97.4707 109.787L97.7684 111.356L92.4966 112.356Z" fill="#EFF0FA"/>
</g>
<rect x="1.5556" y="30.998" width="157.924" height="209.382" rx="4.87967" transform="rotate(-10.7447 1.5556 30.998)" stroke="#721833" stroke-width="2.66164"/>
<defs>
<clipPath id="clip0_9504_2318">
<rect y="29.9386" width="160.586" height="212.044" rx="6.21049" transform="rotate(-10.7447 0 29.9386)" fill="white"/>
</clipPath>
</defs>
</svg>
