<svg width="22" height="24" viewBox="0 0 22 24" fill="none" xmlns="http://www.w3.org/2000/svg">
<path d="M20.776 10.9022C21.3351 11.2435 21.3351 12.0555 20.776 12.3968L14.4308 16.2704C13.8474 16.6265 13.0991 16.2066 13.0991 15.5231L13.0991 7.77588C13.0991 7.09236 13.8474 6.67247 14.4308 7.02862L20.776 10.9022Z" fill="#DE2424"/>
<path d="M19.1677 18.4332C19.7489 18.9576 19.8001 19.8617 19.2084 20.3742C17.7764 21.6145 16.0546 22.4876 14.192 22.9062C11.8665 23.429 9.43618 23.2176 7.23585 22.3013C5.03552 21.385 3.17352 19.8089 1.90642 17.7901C0.63932 15.7714 0.0294973 13.4093 0.160984 11.0294C0.292471 8.64956 1.1588 6.36905 2.64058 4.50215C4.12236 2.63524 6.14667 1.27383 8.43454 0.605514C10.7224 -0.0627991 13.1613 -0.00511696 15.415 0.770611C17.2201 1.39192 18.8353 2.44937 20.1219 3.8399C20.6536 4.41447 20.5031 5.30738 19.8676 5.76451L18.5516 6.71118C17.9162 7.16831 17.0384 7.01032 16.4638 6.47869C15.7474 5.81579 14.8974 5.30493 13.9648 4.98393C12.5826 4.5082 11.087 4.47283 9.68395 4.88268C8.28089 5.29253 7.03946 6.12742 6.13074 7.27232C5.22203 8.41722 4.69075 9.81577 4.61011 11.2752C4.52948 12.7347 4.90345 14.1833 5.68052 15.4213C6.45758 16.6593 7.59947 17.6259 8.94884 18.1878C10.2982 18.7498 11.7886 18.8794 13.2148 18.5588C14.1771 18.3425 15.0781 17.9284 15.8633 17.3484C16.4929 16.8833 17.3827 16.823 17.964 17.3474L19.1677 18.4332Z" fill="white"/>
</svg>
