<svg width="16" height="16" viewBox="0 0 16 16" fill="none" xmlns="http://www.w3.org/2000/svg">
<g clip-path="url(#clip0_10044_339663)">
<path d="M15.2389 8.24007C15.2389 4.07742 11.8644 0.702881 7.70174 0.702881C3.53909 0.702881 0.164551 4.07742 0.164551 8.24007C0.164551 12.0021 2.92081 15.1203 6.52406 15.6857V10.4188H4.61032V8.24007H6.52406V6.57953C6.52406 4.69053 7.64933 3.6471 9.37099 3.6471C10.1956 3.6471 11.0581 3.79431 11.0581 3.79431V5.64916H10.1078C9.17143 5.64916 8.87943 6.23017 8.87943 6.82626V8.24007H10.9698L10.6357 10.4188H8.87943V15.6857C12.4827 15.1203 15.2389 12.0021 15.2389 8.24007Z" fill="#1877F2"/>
<path d="M10.6357 10.4187L10.9699 8.23995H8.87946V6.82614C8.87946 6.22999 9.17147 5.64904 10.1078 5.64904H11.0582V3.79418C11.0582 3.79418 10.1956 3.64697 9.37097 3.64697C7.64937 3.64697 6.52409 4.6904 6.52409 6.57941V8.23995H4.61035V10.4187H6.52409V15.6856C6.91368 15.7466 7.30743 15.7772 7.70178 15.7771C8.09612 15.7772 8.48987 15.7466 8.87946 15.6856V10.4187H10.6357Z" fill="white"/>
</g>
<defs>
<clipPath id="clip0_10044_339663">
<rect width="15.0744" height="15.0744" fill="white" transform="translate(0.165527 0.702881)"/>
</clipPath>
</defs>
</svg>
