<svg width="17" height="16" viewBox="0 0 17 16" fill="none" xmlns="http://www.w3.org/2000/svg">
<path d="M12.5159 0.702759H4.50767C2.55641 0.702759 0.974609 2.28456 0.974609 4.23582V12.2441C0.974609 14.1953 2.55641 15.7771 4.50767 15.7771H12.5159C14.4672 15.7771 16.049 14.1953 16.049 12.2441V4.23582C16.049 2.28456 14.4672 0.702759 12.5159 0.702759Z" fill="url(#paint0_radial_10044_339676)"/>
<path d="M12.5159 0.702759H4.50767C2.55641 0.702759 0.974609 2.28456 0.974609 4.23582V12.2441C0.974609 14.1953 2.55641 15.7771 4.50767 15.7771H12.5159C14.4672 15.7771 16.049 14.1953 16.049 12.2441V4.23582C16.049 2.28456 14.4672 0.702759 12.5159 0.702759Z" fill="url(#paint1_radial_10044_339676)"/>
<path d="M8.5125 2.35156C6.91332 2.35156 6.71258 2.35857 6.08452 2.38713C5.45764 2.41586 5.02972 2.51508 4.65534 2.66071C4.268 2.8111 3.93948 3.0123 3.6122 3.3397C3.28463 3.66704 3.08342 3.99555 2.93256 4.38272C2.78653 4.75722 2.68719 5.18531 2.65898 5.8119C2.6309 6.44002 2.62354 6.64081 2.62354 8.24005C2.62354 9.83929 2.6306 10.0394 2.6591 10.6674C2.68795 11.2943 2.78717 11.7222 2.93268 12.0966C3.08319 12.484 3.28439 12.8125 3.61179 13.1398C3.93901 13.4673 4.26753 13.669 4.65457 13.8194C5.02925 13.965 5.45722 14.0642 6.08399 14.093C6.71211 14.1215 6.91267 14.1285 8.51179 14.1285C10.1111 14.1285 10.3112 14.1215 10.9393 14.093C11.5662 14.0642 11.9946 13.965 12.3692 13.8194C12.7564 13.669 13.0844 13.4673 13.4116 13.1398C13.7392 12.8125 13.9403 12.484 14.0913 12.0968C14.236 11.7222 14.3354 11.2942 14.3648 10.6676C14.393 10.0395 14.4004 9.83929 14.4004 8.24005C14.4004 6.64081 14.393 6.44013 14.3648 5.81202C14.3354 5.18513 14.236 4.75728 14.0913 4.38289C13.9403 3.99555 13.7392 3.66704 13.4116 3.3397C13.0841 3.01219 12.7565 2.81098 12.3689 2.66076C11.9935 2.51508 11.5654 2.41581 10.9385 2.38713C10.3103 2.35857 10.1104 2.35156 8.51067 2.35156H8.5125ZM7.98424 3.41272C8.14105 3.41248 8.316 3.41272 8.5125 3.41272C10.0848 3.41272 10.2711 3.41837 10.892 3.44657C11.4661 3.47284 11.7777 3.56876 11.9853 3.64937C12.2601 3.75607 12.456 3.88367 12.662 4.08983C12.868 4.29592 12.9956 4.49218 13.1026 4.767C13.1832 4.97427 13.2792 5.28588 13.3054 5.86001C13.3336 6.48076 13.3397 6.66719 13.3397 8.2387C13.3397 9.8102 13.3336 9.99669 13.3054 10.6174C13.2791 11.1915 13.1832 11.5031 13.1026 11.7105C12.9959 11.9853 12.868 12.1809 12.662 12.3869C12.4559 12.593 12.2602 12.7206 11.9853 12.8273C11.7779 12.9083 11.4661 13.004 10.892 13.0302C10.2712 13.0584 10.0848 13.0646 8.5125 13.0646C6.94017 13.0646 6.7538 13.0584 6.1331 13.0302C5.55898 13.0037 5.24736 12.9078 5.03962 12.8272C4.76486 12.7204 4.56854 12.5929 4.36245 12.3868C4.15635 12.1807 4.02881 11.9849 3.92182 11.71C3.8412 11.5027 3.74516 11.191 3.71902 10.6169C3.69081 9.99616 3.68516 9.80973 3.68516 8.23722C3.68516 6.66472 3.69081 6.47929 3.71902 5.85853C3.74528 5.28441 3.8412 4.9728 3.92182 4.76523C4.02857 4.49042 4.15635 4.29416 4.36251 4.08806C4.56866 3.88197 4.76486 3.75436 5.03968 3.64743C5.24724 3.56646 5.55898 3.47078 6.1331 3.4444C6.67631 3.41984 6.88682 3.41248 7.98424 3.41124V3.41272ZM11.6557 4.39043C11.2656 4.39043 10.9491 4.70664 10.9491 5.09681C10.9491 5.48692 11.2656 5.80342 11.6557 5.80342C12.0458 5.80342 12.3624 5.48692 12.3624 5.09681C12.3624 4.7067 12.0458 4.3902 11.6557 4.3902V4.39043ZM8.5125 5.21605C6.84254 5.21605 5.48855 6.57003 5.48855 8.24005C5.48855 9.91007 6.84254 11.2634 8.5125 11.2634C10.1825 11.2634 11.536 9.91007 11.536 8.24005C11.536 6.57009 10.1824 5.21605 8.51238 5.21605H8.5125ZM8.5125 6.2772C9.5965 6.2772 10.4753 7.15593 10.4753 8.24005C10.4753 9.32405 9.5965 10.2029 8.5125 10.2029C7.42849 10.2029 6.5497 9.32405 6.5497 8.24005C6.5497 7.15593 7.42843 6.2772 8.5125 6.2772Z" fill="white"/>
<defs>
<radialGradient id="paint0_radial_10044_339676" cx="0" cy="0" r="1" gradientUnits="userSpaceOnUse" gradientTransform="translate(4.97874 16.9382) rotate(-90) scale(14.9398 13.8952)">
<stop stop-color="#FFDD55"/>
<stop offset="0.1" stop-color="#FFDD55"/>
<stop offset="0.5" stop-color="#FF543E"/>
<stop offset="1" stop-color="#C837AB"/>
</radialGradient>
<radialGradient id="paint1_radial_10044_339676" cx="0" cy="0" r="1" gradientUnits="userSpaceOnUse" gradientTransform="translate(-1.55041 1.78864) rotate(78.681) scale(6.67819 27.5277)">
<stop stop-color="#3771C8"/>
<stop offset="0.128" stop-color="#3771C8"/>
<stop offset="1" stop-color="#6600FF" stop-opacity="0"/>
</radialGradient>
</defs>
</svg>
