<svg width="16" height="16" viewBox="0 0 16 16" fill="none" xmlns="http://www.w3.org/2000/svg">
<path d="M7.91921 15.7773C12.082 15.7773 15.4566 12.4027 15.4566 8.23989C15.4566 4.07711 12.082 0.702515 7.91921 0.702515C3.75644 0.702515 0.381836 4.07711 0.381836 8.23989C0.381836 12.4027 3.75644 15.7773 7.91921 15.7773Z" fill="white"/>
<path d="M6.8693 6.96951V6.55812C6.72827 6.53883 6.58496 6.52673 6.43863 6.52673C4.67661 6.52673 3.24316 7.96017 3.24316 9.7222C3.24316 10.8032 3.78349 11.7599 4.60741 12.3384C4.0754 11.7674 3.74908 11.0025 3.74908 10.1627C3.74908 8.42601 5.14207 7.00959 6.8693 6.96913V6.96951Z" fill="#25F4EE"/>
<path d="M6.94447 11.6226C7.73057 11.6226 8.37186 10.9972 8.40097 10.2183L8.40362 3.26057H9.67485C9.64838 3.11765 9.63401 2.97056 9.63401 2.82007H7.8977L7.89505 9.77779C7.86594 10.5571 7.22465 11.1821 6.43855 11.1821C6.19428 11.1821 5.96401 11.1209 5.76172 11.0146C6.02716 11.3821 6.45783 11.623 6.94485 11.623L6.94447 11.6226Z" fill="#25F4EE"/>
<path d="M12.0494 5.62202V5.23521C11.5646 5.23521 11.1128 5.09115 10.7339 4.84424C11.0712 5.23143 11.5294 5.51086 12.0494 5.62202Z" fill="#25F4EE"/>
<path d="M10.7339 4.84368C10.3645 4.41944 10.1399 3.8655 10.1399 3.26013H9.6748C9.79731 3.92146 10.1898 4.48901 10.7339 4.84368Z" fill="#FE2C55"/>
<path d="M6.43853 8.26297C5.6339 8.26297 4.979 8.91749 4.979 9.7225C4.979 10.2829 5.297 10.7699 5.76133 11.0141C5.58815 10.7744 5.48492 10.4806 5.48492 10.163C5.48492 9.35837 6.13982 8.70348 6.94445 8.70348C7.09457 8.70348 7.23863 8.72843 7.37513 8.77078V6.99855C7.23409 6.97926 7.09079 6.96716 6.94445 6.96716C6.91912 6.96716 6.89417 6.96868 6.86883 6.96905V8.33027C6.73271 8.28755 6.58827 8.26297 6.43816 8.26297H6.43853Z" fill="#FE2C55"/>
<path d="M12.0495 5.62195V6.97145C11.1492 6.97145 10.3151 6.68332 9.63411 6.19479V9.723C9.63411 11.485 8.20067 12.9185 6.43864 12.9185C5.75765 12.9185 5.1262 12.7037 4.60742 12.3392C5.19123 12.9657 6.02271 13.359 6.94494 13.359C8.70696 13.359 10.1404 11.9255 10.1404 10.1635V6.6353C10.8214 7.12421 11.6555 7.41195 12.5558 7.41195V5.67564C12.3823 5.67564 12.2129 5.65673 12.0499 5.62195H12.0495Z" fill="#FE2C55"/>
<path d="M9.63354 9.72253V6.19432C10.3145 6.68322 11.1487 6.97097 12.049 6.97097V5.62147C11.529 5.5103 11.0708 5.23088 10.7335 4.84368C10.1894 4.48901 9.79689 3.92146 9.67438 3.26013H8.40315L8.40051 10.2179C8.37139 10.9972 7.7301 11.6222 6.944 11.6222C6.45699 11.6222 6.02631 11.3817 5.76087 11.0138C5.29617 10.7692 4.97855 10.2825 4.97855 9.72215C4.97855 8.91751 5.63345 8.26262 6.43808 8.26262C6.58819 8.26262 6.73225 8.28757 6.86875 8.32992V6.9687C5.14152 7.00916 3.74854 8.42558 3.74854 10.1623C3.74854 11.0024 4.07485 11.767 4.60686 12.338C5.12601 12.7025 5.75709 12.9172 6.43808 12.9172C8.2001 12.9172 9.63354 11.4838 9.63354 9.72177V9.72253Z" fill="black"/>
</svg>
